<?xml version="1.0" standalone="no"?><!DOCTYPE svg PUBLIC "-//W3C//DTD SVG 1.1//EN" "http://www.w3.org/Graphics/SVG/1.1/DTD/svg11.dtd"><svg t="1578210367590" class="icon" viewBox="0 0 1024 1024" version="1.1" xmlns="http://www.w3.org/2000/svg" p-id="3848" xmlns:xlink="http://www.w3.org/1999/xlink" width="200" height="200"><defs><style type="text/css"></style></defs><path d="M511.95857477 954.58710061l-430.82233679-212.09715042c1.53273331 0.95278017-38.11120672-18.22709886-66.23893428-35.37714189 0 25.68363931 6.00665758 72.70126933 28.41770414 85.4188133l421.75021259 202.52792352c37.28270222 18.72420157 53.31426418 18.72420157 93.78670869 0l421.75021259-202.56934874c20.79546279-10.35630617 28.41770414-59.0723704 28.41770414-85.33596287-27.17494739 14.45740341-65.49328023 35.12859054-66.2803595 35.29429145L512 954.58710061z m-46.81050389-171.7904068c37.28270222 18.76562678 53.31426418 18.76562678 93.74528347 0l421.79163781-202.48649829c20.79546279-10.39773139 28.41770414-59.11379564 28.41770414-85.41881331-27.17494739 14.49882864-65.49328023 35.17001577-66.2803595 35.33571665L512 742.44852496l-430.8223368-212.13857565c1.53273331 0.99420539-38.11120672-18.18567363-66.23893427-35.33571666 0 25.68363931 6.00665758 72.65984411 28.41770414 85.41881331l421.83306303 202.40364785z m0-212.09715043c37.28270222 18.72420157 53.31426418 18.72420157 93.74528347 0l421.79163781-202.56934873c31.06891852-15.4516088 32.10454914-81.19344039 0-100.04191764L558.85192912 30.26606206c-33.14017975-21.04401413-56.42115603-19.92553307-93.70385824 0L43.31500784 268.08827701c-32.10454914 22.12106998-33.09875453 81.19344039 0 100.04191764l421.83306304 202.56934873z" p-id="3849"></path></svg>