<?xml version="1.0" standalone="no"?><!DOCTYPE svg PUBLIC "-//W3C//DTD SVG 1.1//EN" "http://www.w3.org/Graphics/SVG/1.1/DTD/svg11.dtd"><svg t="1573544880295" class="icon" viewBox="0 0 1024 1024" version="1.1" xmlns="http://www.w3.org/2000/svg" p-id="6289" xmlns:xlink="http://www.w3.org/1999/xlink" width="200" height="200"><defs><style type="text/css"></style></defs><path d="M408.337065 715.568815c0-125.905398 74.894133-234.066214 182.419954-283.101939-8.4666-3.38664-17.003755-6.561615-25.752575-9.348538 47.236573-36.053605 78.210218-92.885658 78.210218-157.478761 0-109.148586-87.205981-197.624556-194.767079-197.624557-107.561098 0-194.731801 88.475971-194.731801 197.624557 0 64.593103 31.008923 121.425156 78.210218 157.478761-155.362111 49.3885-267.967892 194.731801-267.967892 366.533228 0 21.483998 2.222483 42.403555 5.609123 62.93506 111.618011 65.369208 240.768939 103.327798 378.880352 103.327799 23.42426 0 46.495745-1.481655 69.355566-3.598306-66.88614-57.078995-109.466083-141.886106-109.466084-236.747304z m311.288663-240.345609c-132.749233 0-240.380887 107.631653-240.380887 240.380887s107.631653 240.380887 240.380887 240.380887 240.380887-107.631653 240.380887-240.380887-107.631653-240.380887-240.380887-240.380887z m166.086471 194.202639l-194.484859 171.131154c-2.786923 2.434148-5.573845 3.704138-7.61994 4.621352-6.879113 3.174975-13.476005 4.2333-19.931788 3.457195-7.90216-0.917215-15.275158-4.65663-20.672615-10.477417l-91.897888-98.706446c-13.017398-13.96989-12.241293-35.947773 1.728598-49.000448 7.47883-6.984945 17.603473-10.265753 27.728115-9.066318 8.113825 0.952493 15.66321 4.79774 21.272332 10.794916l68.932236 74.047473 169.155614-148.871051c7.372998-6.49106 17.21542-9.560203 26.987287-8.396046 8.501878 1.023048 16.262928 5.115238 21.942606 11.535743 12.55879 14.357943 11.182968 36.300548-3.139698 48.929893z" p-id="6290"></path></svg>