<?xml version="1.0" standalone="no"?><!DOCTYPE svg PUBLIC "-//W3C//DTD SVG 1.1//EN" "http://www.w3.org/Graphics/SVG/1.1/DTD/svg11.dtd"><svg t="1576562576867" class="icon" viewBox="0 0 1024 1024" version="1.1" xmlns="http://www.w3.org/2000/svg" p-id="6007" xmlns:xlink="http://www.w3.org/1999/xlink" width="200" height="200"><defs><style type="text/css"></style></defs><path d="M64.853333 928.426667h921.6c17.066667 0 30.72 10.24 30.72 30.72 0 17.066667-13.653333 30.72-30.72 30.72H51.2C13.653333 989.866667 6.826667 983.04 6.826667 945.493333V64.853333v-20.48C6.826667 27.306667 17.066667 17.066667 34.133333 17.066667s27.306667 10.24 30.72 27.306666v884.053334z" fill="#909399" p-id="6008"></path><path d="M406.186667 498.346667V174.08c0-40.96 17.066667-58.026667 58.026666-58.026667h102.4c44.373333 0 61.44 17.066667 61.44 61.44v651.946667c0 40.96-17.066667 58.026667-61.44 58.026667h-98.986666c-44.373333 0-61.44-17.066667-61.44-61.44v-327.68z m-290.133334 109.226666v-225.28c0-37.546667 17.066667-54.613333 54.613334-54.613333h112.64c34.133333 0 51.2 17.066667 51.2 51.2v464.213333c0 34.133333-20.48 51.2-54.613334 51.2H167.253333c-37.546667 0-54.613333-20.48-54.613333-54.613333 3.413333-78.506667 3.413333-153.6 3.413333-232.106667z m795.306667 54.613334v170.666666c0 37.546667-17.066667 54.613333-54.613333 54.613334h-116.053334c-34.133333 0-51.2-17.066667-51.2-51.2V491.52c0-34.133333 17.066667-51.2 54.613334-51.2h112.64c34.133333 0 51.2 17.066667 51.2 51.2 3.413333 54.613333 3.413333 112.64 3.413333 170.666667z"  p-id="6009"></path></svg>