<?xml version="1.0" standalone="no"?><!DOCTYPE svg PUBLIC "-//W3C//DTD SVG 1.1//EN" "http://www.w3.org/Graphics/SVG/1.1/DTD/svg11.dtd"><svg t="1578280926924" class="icon" viewBox="0 0 1024 1024" version="1.1" xmlns="http://www.w3.org/2000/svg" p-id="5991" xmlns:xlink="http://www.w3.org/1999/xlink" width="24" height="24"><defs><style type="text/css"></style></defs><path d="M409.93860267 105.152512A77.36160711 77.36160711 0 0 1 359.76229925 123.63851852H123.63851852v621.37837037h621.37837037V591.22574222c0-23.69005037 10.64110459-44.89458725 27.41832059-59.10861747L822.68918518 591.22574222V745.01688889a77.6722963 77.6722963 0 0 1-77.67229629 77.67229629H123.63851852a77.6722963 77.6722963 0 0 1-77.6722963-77.67229629V123.63851852a77.6722963 77.6722963 0 0 1 77.6722963-77.6722963h236.04610845l50.2539757 59.18628978z" p-id="5992"></path><path d="M240.14696297 123.63851852a38.83614815 38.83614815 0 0 1 0-77.6722963h233.01688888a38.83614815 38.83614815 0 0 1 0 77.6722963h-233.01688888zM745.01688889 395.49155555a38.83614815 38.83614815 0 1 1 77.67229629 0v233.0168889a38.83614815 38.83614815 0 1 1-77.67229629 0v-233.0168889zM207.8352877 339.33448533a38.83614815 38.83614815 0 0 1 64.62335052-43.03045215l155.3445926 233.0168889a38.83614815 38.83614815 0 0 1-64.62335052 43.03045214l-155.3445926-233.01688889z" p-id="5993"></path><path d="M422.98754845 578.33214103a38.83614815 38.83614815 0 1 1-54.99198578-54.99198578l466.03377778-466.03377777a38.83614815 38.83614815 0 0 1 54.99198577 54.99198577l-466.03377777 466.03377778zM897.72062341 244.03057778a38.83614815 38.83614815 0 1 1 77.67229629 0v621.37837037a116.50844445 116.50844445 0 0 1-116.50844445 116.50844444h-621.37837036a38.83614815 38.83614815 0 1 1 0-77.67229629h621.37837036a38.83614815 38.83614815 0 0 0 38.83614816-38.83614815v-621.37837037z" p-id="5994"></path></svg>