<?xml version="1.0" standalone="no"?><!DOCTYPE svg PUBLIC "-//W3C//DTD SVG 1.1//EN" "http://www.w3.org/Graphics/SVG/1.1/DTD/svg11.dtd"><svg t="1568188818682" class="icon" viewBox="0 0 1024 1024" version="1.1" xmlns="http://www.w3.org/2000/svg" p-id="3015" xmlns:xlink="http://www.w3.org/1999/xlink" width="200" height="200"><defs><style type="text/css"></style></defs><path d="M900.54656 1017.11644445H667.40679111a38.83804445 38.83804445 0 1 1 0-77.73297778h233.13976889c21.43914667 0 38.83804445-17.39776 38.83804445-38.83690667V706.24483555a38.83804445 38.83804445 0 0 1 77.73070222 0v194.30172445a116.73827555 116.73827555 0 0 1-116.56874667 116.56874667z m77.73184-660.52323556a38.89379555 38.89379555 0 0 1-38.89379555-38.89493334V123.45344a38.83804445 38.83804445 0 0 0-38.83804445-38.83804445H667.40679111a38.83804445 38.83804445 0 0 1 0-77.73070222h233.13976889a116.73827555 116.73827555 0 0 1 116.56874667 116.56874667v194.24483555c0 21.49603555-17.39776 38.89493333-38.83690667 38.89493334zM652.75904 455.25902222c-8.47530667 31.70986667-30.08284445 81.77208889-60.89386667 115.89518223-31.03744 34.29262222 1.34599111 61.17603555 9.42762667 63.86915555 37.32252445 12.40405333 103.60604445 41.02712889 137.44810667 68.58410667 16.38855111 13.35751111 37.20988445 33.84206222 44.73059555 53.76682666 3.19943111 8.41841778 1.96494222 16.78108445 2.46897778 22.95466667l-547.60106667 1.12184889s-1.51552-10.94428445 2.75000889-22.61788444c4.99484445-13.41326222 15.99601778-28.06215111 18.91441778-31.54147556 5.38737778-6.45461333 56.74097778-48.99612445 83.34336-60.61397334 9.76554667-4.26552889 67.57262222-23.57134222 83.79278222-37.65930666 16.27704889-14.08682667 22.61902222-42.03633778 3.08792889-60.44558222-19.47534222-18.40924445-54.77717333-95.80316445-54.77717333-95.80316445s-37.77194667-141.31996445 42.5984-198.56725333c28.95985778-21.88743111 60.1088-31.65297778 85.30830222-31.65297778 29.184 0 60.78122667 6.51036445 77.89909333 15.15292444 31.14894222 15.71498667 49.78232889 38.16448 65.27317334 71.16572445 18.68913778 39.79150222 14.31096889 95.97155555 6.22933333 126.39118222zM317.69827555 84.61653333H123.45344a38.83804445 38.83804445 0 0 0-38.83804445 38.83690667v194.24483555a38.89379555 38.89379555 0 0 1-77.73070222 0V123.45344A116.73827555 116.73827555 0 0 1 123.45344 6.88469333h194.24483555a38.83804445 38.83804445 0 1 1 0 77.73070222zM45.7216 667.40565333c21.44028445 0 38.89379555 17.39889778 38.89379555 38.83804445v194.30172444c0 21.43914667 17.39889778 38.83804445 38.83804445 38.83804445h194.30172445a38.83804445 38.83804445 0 1 1-0.0568889 77.73070222H123.45344A116.73827555 116.73827555 0 0 1 6.88469333 900.54656V706.24483555c0-21.43914667 17.39776-38.83804445 38.83690667-38.83804444z" p-id="3016"></path></svg>