<?xml version="1.0" standalone="no"?><!DOCTYPE svg PUBLIC "-//W3C//DTD SVG 1.1//EN" "http://www.w3.org/Graphics/SVG/1.1/DTD/svg11.dtd"><svg t="1573636591611" class="icon" viewBox="0 0 1024 1024" version="1.1" xmlns="http://www.w3.org/2000/svg" p-id="3065" xmlns:xlink="http://www.w3.org/1999/xlink" width="200" height="200"><defs><style type="text/css"></style></defs><path d="M122.3648 559.18506667l134.79893333-79.10826667 176.69333334-103.69386667 177.312-104.05653333 136.656-80.1984 40.48426666-23.75786667a1734812.8256 1734812.8256 0 0 0-40.7232-69.94986666c-12.3168-21.1552-39.808-30.5696-61.60533333-17.87946667l-19.19146667 11.17333333-117.08053333 68.1632-174.57386667 101.63413334-175.1424 101.96586666-118.78826666 69.15626667-20.47253334 11.91893333c-21.6608 12.6112-27.3408 41.104-15.03253333 62.24533334l5.30026667 9.10506666 36.95466666 63.4752 34.41066667-20.19306666zM333.23946667 716.75306667c1.2416 0.50453333 2.19626667 0.8576 0 0zM301.52533333 684.59626667c-0.2976-0.72106667-0.22293333-0.5312 0 0zM399.7824 697.3728c0.22933333-0.3072 0.2848-0.384 0 0z" p-id="3066"></path><path d="M985.8368 508.0512a23.97013333 23.97013333 0 0 0-1.35253333-2.71893333l-51.5968-88.6272-102.93653334-176.8096-16.94933333-29.11253334-37.37066667 21.93173334-134.79893333 79.1072-176.69333333 103.69386666-177.312 104.05653334-136.65706667 80.1984-37.5232 22.02133333 13.52213333 23.2256 103.17013334 177.21066667 53.38666666 91.70133333c12.41706667 21.328 40.16746667 29.7024 61.74933334 17.136l7.2544-4.22293333 37.20853333-21.66293334 140.30506667-81.6832a27161155.02186667 27161155.02186667 0 0 0 344.9344-200.81493333l90.7808-52.85226667 4.33493333-2.52373333c21.04426667-12.2528 26.3136-38.256 16.544-59.2544zM430.9056 736.3872c-18.13226667 19.41973333-43.0016 30.81493333-69.35146667 32.97813333-51.06346667 4.19093333-102.62293333-33.632-110.63466666-85.088-2.43413333-15.63626667-2.65386667-31.1104 1.49333333-46.54933333 3.9776-14.8032 11.0752-27.75466667 20.4672-39.7248 17.79093333-22.67733333 45.392-35.968 73.83146667-38.30293333 28.83946667-2.36693333 58.1952 8.37866667 79.27466666 28.0608 20.86933333 19.48693333 32.672 46.992 33.28533334 75.42293333 0.0224 0.44693333 0.03306667 0.89706667 0.0288 1.34933333 0.00533333 0.57386667-0.01813333 1.14133333-0.0544 1.70666667-0.6432 25.97866667-10.5472 51.08906667-28.34026667 70.1472z m297.17013333-222.32l-52.51306666 32.5664-133.28426667 82.656c-11.37386667 7.05386667-26.94506667 2.50346667-33.56586667-8.80106667-6.89173333-11.76426667-2.54186667-26.5312 8.80106667-33.56586666 17.504-10.85653333 35.008-21.71093333 52.51306667-32.5664l133.28426666-82.65706667c11.3728-7.0528 26.94506667-2.5024 33.56586667 8.80106667 6.89173333 11.7664 2.54293333 26.53333333-8.80106667 33.56693333z m53.3056-145.51146667l-22.93653333 14.06186667-160.58346667 98.4448-108.88853333 66.75413333c-11.40906667 6.9952-26.9184 2.5472-33.56586667-8.80106666-6.86506667-11.71946667-2.57813333-26.58986667 8.80106667-33.56586667l22.93653333-14.06186667 160.5824-98.4448 108.8896-66.7552c11.408-6.99413333 26.9184-2.54613333 33.56586667 8.80106667 6.86506667 11.72053333 2.5792 26.58986667-8.80106667 33.56693333z" p-id="3067"></path><path d="M409.8752 656.87146667l-0.09173333-0.46933334c-0.72426667-3.75466667-1.6192-7.48693333-2.8736-11.10293333-0.304-0.8768-1.21493333-3.0496-1.52-3.82293333a55.94026667 55.94026667 0 0 0-1.00053334-1.9904c-1.7152-3.2-3.57546667-6.33066667-5.70453333-9.27466667a83.15946667 83.15946667 0 0 0-1.54346667-1.8016c-1.24266667-1.37706667-2.49813333-2.7456-3.83253333-4.03413333-1.33333333-1.2896-2.68053333-2.56746667-4.10026667-3.7632-0.25493333-0.21866667-0.51946667-0.42666667-0.7776-0.6432-2.9664-2.07786667-6.02666667-4.03413333-9.2512-5.69066667-0.8704-0.44693333-1.744-0.88853333-2.62506666-1.3152-0.9952-0.38826667-2.50666667-0.9824-3.1872-1.20533333-3.80266667-1.24266667-7.68-2.28266667-11.62666667-2.9568-0.55253333-0.05226667-1.104-0.11093333-1.65653333-0.15146667-1.9808-0.12693333-3.9648-0.23466667-5.95093334-0.21653333-1.98506667 0.01813333-3.97226667 0.0544-5.95093333 0.21653333-0.58026667 0.048-1.02933333 0.08106667-1.38666667 0.10453333-3.5616 0.64106667-7.10186667 1.43573333-10.544 2.56106667-1.19893333 0.39146667-5.056 1.98613333-5.2224 1.98613333-0.65173333 0.3168-1.30453333 0.63466667-1.94346666 0.97706667-3.184 1.70773333-6.29866667 3.55946667-9.232 5.67466667-0.26453333 0.2208-0.5344 0.43413333-0.7968 0.65813333-1.3984 1.2192-2.78826667 2.4512-4.10026667 3.7632-1.31093333 1.31093333-2.61333333 2.63573333-3.83253333 4.03413333-0.51626667 0.59306667-1.62026667 2.0256-2.24106667 2.8256-2.29546667 3.34506667-4.37866667 6.83946667-6.1472 10.4928-0.23786667 0.7904-1.8848 5.0432-2.2432 6.28906667-0.79573333 2.76266667-1.5168 5.552-2.01173333 8.38613333l-0.10666667 0.6016-0.00853333 0.1088c-0.1216 1.4752-0.24213333 2.95146667-0.28266667 4.43093334-0.08106667 2.98026667-0.08213333 5.968 0.16213333 8.9408 0.048 0.58666667 0.17706667 1.59893333 0.27413334 2.352 0.0768 0.41706667 0.1472 0.83413333 0.23573333 1.24906666 0.59413333 2.8064 1.264 5.60106667 2.15573333 8.3296a97.29066667 97.29066667 0 0 0 1.41866667 4.04906667c0.10346667 0.2304 0.20053333 0.44053333 0.28266667 0.60586667 1.2384 2.5152 2.544 5.00266667 4.0384 7.37813333 0.78293333 1.2448 4.0768 5.60426667 3.82933333 5.44533333 1.12426667 1.30986667 2.272 2.59626667 3.49226667 3.81546667a93.57333333 93.57333333 0 0 0 4.92586666 4.61013333c0.83946667 0.5504 4.26026667 3.0528 5.31946667 3.69493334 2.39893333 1.45173333 4.83946667 2.84373333 7.37813333 4.03733333 0.2848 0.1344 0.68693333 0.30613333 1.10186667 0.47893333 0.72853333 0.27306667 1.46026667 0.5376 2.20053333 0.77866667 3.17653333 1.03893333 6.39786667 1.96586667 9.6832 2.59946667 0.60373333 0.11626667 1.2096 0.23146667 1.8144 0.34133333 0.6464 0.06826667 1.3472 0.13973333 1.78666667 0.16746667 2.97493333 0.19093333 5.96053333 0.2976 8.93973333 0.16213333 1.4784-0.0672 2.95893333-0.1344 4.432-0.28266667l0.016-0.00106666c3.06133333-0.55253333 6.10666667-1.21173333 9.0816-2.12586667 1.39306667-0.42773333 6.34453333-2.4256 6.37653334-2.32746667 3.97653333-1.94133333 7.82186667-4.15573333 11.41013333-6.75093333 0.256-0.21333333 0.51733333-0.42133333 0.7712-0.63786667 1.04853333-0.91413333 2.0992-1.82933333 3.09973333-2.7968 2-1.9328 3.95413333-3.92 5.7472-6.05013333 0.25173333-0.29866667 0.61013333-0.76053333 0.9504-1.2064 0.3744-0.52906667 0.74346667-1.06133333 1.09866667-1.6032 1.53173333-2.3424 3.0048-4.72853333 4.2848-7.2192 0.53226667-1.0368 1.04853333-2.08106667 1.5488-3.13386667 0.19626667-0.49706667 0.38826667-0.99946667 0.50666667-1.3376 0.93546667-2.6976 1.80053333-5.42613333 2.44266666-8.21013333 0.31786667-1.3792 0.96106667-6.1216 1.1168-6.74773333a97.568 97.568 0 0 0 0.23146667-5.6192c-0.0224-2.47573333-0.0896-4.95573333-0.33706667-7.4208-0.01066667-0.08533333-0.01706667-0.15786667-0.02453333-0.2368z" p-id="3068"></path><path d="M121.4624 945.23946667h543.67146667c13.37386667 0 24.53333333-11.15946667 24.53333333-24.53333334s-11.15946667-24.53333333-24.53333333-24.53333333H121.4624c-13.37386667 0-24.53333333 11.15946667-24.53333333 24.53333333s11.15946667 24.53333333 24.53333333 24.53333334z" p-id="3069"></path><path d="M783.3856 945.23946667h111.2448c13.37386667 0 24.53333333-11.15946667 24.53333333-24.53333334s-11.15946667-24.53333333-24.53333333-24.53333333H783.3856c-13.37386667 0-24.53333333 11.15946667-24.53333333 24.53333333s11.15946667 24.53333333 24.53333333 24.53333334z" p-id="3070"></path></svg>