<?xml version="1.0" standalone="no"?><!DOCTYPE svg PUBLIC "-//W3C//DTD SVG 1.1//EN" "http://www.w3.org/Graphics/SVG/1.1/DTD/svg11.dtd"><svg t="1573636190713" class="icon" viewBox="0 0 1024 1024" version="1.1" xmlns="http://www.w3.org/2000/svg" p-id="2732" xmlns:xlink="http://www.w3.org/1999/xlink" width="200" height="200"><defs><style type="text/css"></style></defs><path d="M152.79767445 705.22795697c11.85531286-1.77148308 24.25569462-2.18028661 35.56593479-5.58698382 33.11311375-9.81129164 41.83426023-35.29340039 16.8972277-58.59522259-33.93072077-31.88669958-71.54067684-59.54909494-107.65168424-89.11923885-19.48631779-15.94335162-38.97263569-32.15923769-58.59521889-47.96632021-17.03349313-13.6267959-20.98526647-32.84057567-10.62890226-49.05646539 32.15923769-50.14660684 64.1822063-101.11082081 102.06470038-146.76058529 25.20957067-30.38775457 51.37301744-20.98526647 65.81742044 16.89722767 3.95176973 10.35636422 5.99579094 21.53033542 9.26621905 32.15923772 9.53875714 31.75043417 29.43387854 43.06067441 59.95790211 30.11521645 52.3268935-22.34794605 96.20517498-56.68747035 126.45666045-105.60766309 21.80287347-35.29340039 12.4003854-59.14029141-26.57225021-73.17589087-17.98736916-6.54086351-37.47368701-9.6750262-54.6434528-17.71483469-26.43598118-12.4003854-33.79445177-35.70220393-11.71904383-53.14450053 49.73780336-39.38143916 102.60976943-75.08364306 156.7081497-108.19675685 20.8489974-12.80918889 43.19693984 0 58.18641532 19.89512138 28.07119886 37.33741792 56.00612875 74.94737396 84.48613117 111.87598843 10.49263324 13.6267959 20.98526647 28.48000243 34.61205871 38.15502864 12.4003854 8.85741556 30.93282717 18.66871082 43.60574705 15.39827904 22.48421145-5.58698746 30.66028901-26.98105376 28.88880588-51.10048294-0.81760703-10.90143678-1.36267953-22.62048054 1.49894501-32.84057569 8.85741556-30.66028901 39.38143916-45.92229898 67.18010364-30.79655808 53.0082351 28.75253685 95.25129886 69.63292466 117.0541724 127.2742675 18.80497618 50.01033776 1.63521406 72.08574574-51.37302112 75.76498105-15.26200998 1.09014516-40.06277718 8.85741556-42.51560181 18.12363819-3.54296623 13.89933042 4.22430784 37.60995603 15.53454805 47.14871322 45.78603361 38.42756305 94.43369183 73.31215993 142.26374306 108.87809485 52.59943157 39.10890108 57.2325393 58.59521885 20.44019392 113.92000961-25.34583973 37.88249053-51.23675201 76.03751916-81.76077203 109.69570182-33.52191728 37.20115253-66.36249296 28.75253685-75.08364303-20.30392486-14.98947555-84.48613116-66.90756549-85.3037382-118.82565542-33.11311377-28.75253685 28.88880595-52.735697 64.1822063-71.81321138 100.42948281-18.1236382 34.33952432-2.58909012 58.05014995 34.61205872 68.54277953 23.71062563 6.67712892 58.867757 7.76727401 58.73148806 37.33742161-0.13626908 20.16765583-21.93913889 44.15081596-39.92650815 59.27655689-31.75043417 26.57225024-67.18009997 49.05646176-102.47350034 70.85933884-45.78603361 28.20746796-67.58890348 22.34794605-100.1569483-21.66660809-34.33952432-46.60364064-68.8153177-92.93474323-103.972449-138.85704216-6.81339796-8.85741556-15.26200998-16.21588607-24.93703254-21.80287355-24.39196362-14.03559942-44.28708499-2.58909012-46.60364069 25.6183742-4.49684228 55.73359429-41.97052927 79.03541279-93.07101217 55.4610598-52.87196607-24.39196362-88.57416996-67.72517254-111.33091958-120.18833509-16.07961701-37.33741792 7.76727401-61.86565062 53.82584218-57.23254284z m0 0" p-id="2733"></path></svg>