<?xml version="1.0" standalone="no"?><!DOCTYPE svg PUBLIC "-//W3C//DTD SVG 1.1//EN" "http://www.w3.org/Graphics/SVG/1.1/DTD/svg11.dtd"><svg t="1573636579042" class="icon" viewBox="0 0 1024 1024" version="1.1" xmlns="http://www.w3.org/2000/svg" p-id="2954" xmlns:xlink="http://www.w3.org/1999/xlink" width="200" height="200"><defs><style type="text/css"></style></defs><path d="M938.7 445.7c-11.5-10.8-22.6-22.3-33.4-33.4l-5.4-5.5-23.6-23.9c-18.5-18.6-37.6-37.9-55.8-57.3l-1.7-1.8c-0.7-0.8-1-1.2-1.1-1.3l-3.9-3.6-1.2-1.2s-1-1.1-1.2-1.2c-0.2-0.2-0.5-0.4-1.3-1.2L791 295.6c-1-0.7-1.6-1.5-2.3-2.4l-1.1-1.5v-66.3c0-3.6 0.1-7.1 0.1-10.3 0.3-20.4 0-29-10.5-36.6-5.4-3.9-10.5-4.1-21.5-4.1h-65.3c-2.3 0-4.2 0.2-5.8 0.3-1.5 0.1-2.8 0.2-4 0.2-5 0-8.8-1.7-13.5-6l-12.8-11.1c-2.4-2.1-4.8-4.2-7.3-6.2-3.4-2.8-6.8-5.7-10.2-8.9-2.6-2.5-5.3-4.7-8.2-7.1-3-2.5-6.1-5-9.1-7.9-4.4-4.3-9.4-8.5-14.2-12.4-2.3-1.9-4.7-3.9-6.9-5.8l-1.1-0.9c-1-0.9-2-1.8-3.3-2.7-2-1.5-3.6-3-5.2-4.5-1-0.9-2.1-1.9-3.3-3-3-2.6-5.6-4.9-8.6-7.4-2.3-1.9-4.6-4-6.8-6-3.4-3.1-6.6-6.1-10.2-8.6-12.7-9.1-30-14.4-47.3-14.4-16.3 0-31.8 4.6-43.5 13-8.6 6.2-16.7 13.5-24.5 20.7-5.1 4.6-10.4 9.4-15.7 13.9l-32.3 27.8c-5.2 4.9-10.7 9.6-16.1 14.1-3.4 2.8-6.7 5.6-9.9 8.4-2.5 2.3-4.9 4.4-7.5 6.5-0.7 0.6-1.5 1.3-2.2 2.1-1.7 1.7-3.5 3.6-5.8 4.8-2.2 1.2-5.7 1.8-17.4 1.8-6.9 0-15.6-0.2-24.8-0.5-10.7-0.3-21.7-0.6-32-0.6-21.1 0-28.6 1.4-31.1 2.5-12.6 5.7-14 14.7-14 32.6 0 1.4 0 5.3 0.1 10.7 0.5 58.4 0.2 70.3-0.4 72.5-0.8 3.1-3.3 5.6-6.5 8.5-0.5 0.5-1 0.9-1.3 1.2-1.3 1.3-2.4 2.5-3.6 3.7l-3.5 3.5-81.1 82c-4.1 4.2-8.6 8.8-13.2 13.7-11.3 11.7-24 25-34.1 34.6-1.2 1.2-2.2 1.9-3.2 2.7l-1.2 0.9c-9.9 7.7-19.8 22.4-19.8 35.5v437.5c0 5 2.6 12.4 5 17.3 2.1 4.3 4.3 7.4 7 10.6 7.3 8.9 20.6 17.9 33.5 17.9h796.7c5.9 0 11.3-2.2 16.1-4.5 0.7-0.3 1.2-0.5 1.6-0.7 0.2-0.1 0.4-0.1 1-0.5 2.3-1.2 4.6-2.7 7-4.7l6.8-6.5c4.2-5.2 6.8-9.9 9.7-15.8 3-6.2 3.2-13.2 3.2-22.3V512.5c0-2.4-0.1-4.9-0.1-7.5-0.1-7.2-0.3-14.6 0.5-21 1.4-12.2-7.8-29.4-17.3-38.3z m-151.1-75.8l8.8-4.6c2.9 2 12.5 11.9 14 13.6l2.3 2.5c0.3 0.2 0.6 0.5 1 1l9.9 9.6c2.9 3 5.9 5.9 8.8 8.8 7.7 7.7 15.7 15.6 22.6 23.9l4.2 4.5 1.3 1.5 0.9 0.9c0.5 0.5 0.9 0.9 1.3 1.4 2.6 2.9 9.3 9.6 16.4 16.7 14.5 14.6 21.5 21.8 23 24.1l2 3.1-2 3.1c-1.2 1.8-4.6 5-15.8 14.6-2 1.7-3.6 3.1-4.5 3.9l-6.2 5.6-0.9 0.9c-0.7 0.8-1.4 1.5-2.3 2.2l-32.7 29.3c-0.6 0.5-1 0.9-1.4 1.2-0.5 0.4-0.9 0.7-2 1.8l-9.7 8.6-1 1c-0.8 0.9-1.5 1.6-2.7 2.6-1 0.8-1.9 1.6-2.8 2.4-1.2 1.1-2.4 2.2-3.8 3.3-0.6 0.5-0.9 0.9-1.3 1.3s-0.7 0.8-1.2 1.2c-1.2 1.2-2 1.8-2.7 2.3-0.3 0.2-0.7 0.5-1.1 0.9l-13 11.5-9.4-4.2V369.9zM447.4 153l39.5-33.8c0.9-0.7 1.8-1.4 2.7-2.2 5-4.2 11.8-9.9 21.8-9.9 13.5 0 18.1 3.3 25.6 9.7 0.9 0.8 1.9 1.6 3.1 2.6l26 22.3c1.1 1 2.2 1.9 3.2 2.8 1.7 1.5 3.4 3 5.5 4.6l13.5 11.3c0.4 0.4 0.9 0.8 1.4 1.2 1.2 1 2.7 2.2 3.8 3.8l-4.6 8.8H438.6l-4.7-8.7c2.1-3.2 13.1-12.2 13.5-12.5z m-102 154.5h333.1V352H345.4v-44.5z m0 124.4h333.1v44.4H345.4v-44.4zM127 468.1c0.9-0.6 2.6-2.5 3.3-3.2l1-1 15.8-16.2 0.2-0.2c1.4-1.2 2.4-1.7 3.3-2.1 0.1-0.1 0.3-0.2 0.5-0.3 3.2-2.9 6.9-6.8 10.4-10.6 3.4-3.6 6.6-7.1 9.6-9.8l3.4-3.2c6.4-5.8 11.9-11.6 17.7-17.6 2.8-3 5.7-6 8.7-9l2.8-2.9c15.4-15.9 21.5-22.1 23.6-23.4l8.7 4.7v191.5l-8.8 4.6c-2.8-1.9-6.8-5.7-11.1-9.6-3-2.8-6.1-5.6-8-7.1-1.2-0.9-1.8-1.5-2.5-2.2-0.3-0.3-0.5-0.5-0.9-0.8l-41.6-37.2c-0.6-0.5-0.9-0.7-1.2-1-0.5-0.4-1-0.7-2-1.5l-22.4-20.2c-0.7-0.7-1.9-1.6-3.1-2.7-5.1-4.4-8.9-7.7-10.5-10.2l-4.3-6.7 7.4-2.1z m1.3 401.1c-0.5 0.4-0.9 0.9-1.3 1.3-1.5 1.7-3.6 4-7.1 4.9l-7 1.8V541.8l8.8-4.6c1.7 1.2 4.8 3.7 6.4 5.3 0.9 0.9 1.6 1.4 2.3 2.1 1 0.8 2 1.6 2.9 2.6l56.2 50.1c0.5 0.5 0.9 0.8 1.2 1.2 0.3 0.3 0.5 0.5 1.2 1 3.5 2.8 7.8 6.8 11.9 10.7 3.7 3.5 7.6 7.1 10.7 9.6L245 647c1.3 1 2.3 2 3.2 2.9 0.6 0.7 1.3 1.3 2.1 2 1.3 1 2.4 2 3.5 3.1 0.7 0.7 1.5 1.4 2.5 2.3l5.5 4.9c0.5 0.4 0.9 0.8 1.2 1.2 0.4 0.3 0.7 0.7 1.1 1l0.8 0.6c1 0.8 1.7 1.3 2.9 2.6l1 1.1 1.3 1.3 14 12.4 0.3 0.3c1 1 3.6 3.3 6.1 5.5 6.7 5.8 10 8.8 11.3 10.9l2 3.1-2 3.1c-2.4 3.6-17.2 16.8-17.2 16.8L129.2 868.3l-0.9 0.9z m738.4 46.7H160l-4.7-8.7c1.9-2.8 3.7-4.3 5.7-5.8l0.5-0.4 23.9-22.7c0.7-0.6 1.1-0.9 1.5-1.2 0.3-0.3 0.6-0.5 1.1-0.9l21.2-20.5c4.7-4.2 12.3-11.4 19.5-18.4 9.8-9.4 19.1-18.2 23.2-21.5l42.6-39.9c1-0.9 1.9-1.9 2.8-2.9 0.7-0.7 1.3-1.4 2.1-2.2 1.1-1.1 2-1.9 3-2.6 0.8-0.6 1.5-1.2 2.4-2.2 3.7-3.9 8.4-8.1 13.3-12.6 4.8-4.3 9.7-8.8 13.5-12.8 1.3-1.3 2.3-2.2 3.3-3 0.7-0.6 1.4-1.1 2.4-2.1l10.6-10.3c2-1.8 4-3 5.7-4 2.2-1.3 3.8-2.2 5.3-4.2 0.5-0.7 1-1.4 1.6-2.2 0.9-1.4 1.9-2.8 3-4.1l0.2-0.2 42.5-40c1.3-1.4 2.4-2.3 3.4-3.1 0.7-0.6 1.4-1.1 2.1-1.9 1.6-1.6 3.1-3 4.6-4.4 2-1.8 3.8-3.6 6-5.8l10.7-10.1c0.9-0.8 1.5-1.2 2.1-1.7 0.2-0.2 0.5-0.3 0.8-0.6l5.1-5.1c0.8-0.7 1.3-1.1 1.8-1.5 0.3-0.2 0.6-0.4 1-0.8l32-30.2 0.2-0.2c1.7-1.3 3.3-2.7 5-4.3 5.7-5.2 12.8-11.7 24.5-11.7 9.9 0 21.3 1.3 31.1 10.7l147.8 135.6 1 1 1.3 1.3 8.5 7.5c1.1 0.9 2 1.9 2.9 2.8 0.8 0.8 1.4 1.5 2.2 2.1 4.1 3.3 9.9 8.8 15.9 14.6 6.2 5.9 12.5 12 16.7 15.2l0.2 0.2 11.1 10.5c0.7 0.7 1.4 1.2 2 1.7 1 0.9 2.2 1.9 3.4 3.1l38.5 35.4 0.2 0.2c0.6 0.7 1.3 1.4 2 2 7 6 13.8 12.4 20.3 18.5 6.7 6.3 13.7 12.9 21 19.1l33.1 30.4c0.5 0.5 1.4 1.3 2.3 2.2 2.1 2 3.1 2.9 3.6 3.5l-3.9 9.2z m44.1-41.2l-7.1-2c-1.9-0.5-4.2-1.7-13.3-10.9L838.1 814c-0.5-0.5-0.9-0.7-1.2-1-0.5-0.4-1.1-0.8-2-1.6l-38.1-35c-1.1-0.9-1.9-1.8-2.8-2.6-0.9-0.9-1.6-1.6-2.8-2.5l-0.2-0.1-69.6-64.4 2.5-3.9c1.6-2.6 3.2-3.7 4.5-4.7 0.5-0.4 1-0.7 1.6-1.3 1.1-1.1 2.1-1.9 3-2.7 0.8-0.6 1.5-1.2 2.5-2.2l0.9-0.9c0.6-0.6 1.2-1.2 2-1.9l13.5-11.8c5.5-5.5 14.1-12.9 22.4-20.1 8.4-7.3 17.2-14.9 21.7-19.6 3-3 8.2-7.6 13.7-12.4 5.3-4.6 10.9-9.5 13.8-12.4 1.1-1.1 2.1-1.9 3-2.7 0.7-0.6 1.5-1.3 2.4-2.2 1.1-1.1 2-1.9 2.9-2.7 0.8-0.7 1.7-1.4 2.6-2.4 1.3-1.4 2.4-2.3 3.5-3.2 0.7-0.6 1.4-1.1 2.3-2l16.6-14.9c1-0.9 1.5-1.3 2.1-1.7 0.3-0.2 0.6-0.4 1.1-0.9l1-1c0.3-0.4 0.7-0.7 1.3-1.4l32.7-29.4c1.9-1.9 5.6-5.3 8.8-6.1l7.1-1.9v334.3z" p-id="2955"></path></svg>