<?xml version="1.0" standalone="no"?><!DOCTYPE svg PUBLIC "-//W3C//DTD SVG 1.1//EN" "http://www.w3.org/Graphics/SVG/1.1/DTD/svg11.dtd"><svg t="1576916029686" class="icon" viewBox="0 0 1024 1024" version="1.1" xmlns="http://www.w3.org/2000/svg" p-id="3721" xmlns:xlink="http://www.w3.org/1999/xlink" width="200" height="200"><defs><style type="text/css"></style></defs><path d="M475.384358 804.591835h73.136055V36.568028A36.568028 36.568028 0 0 0 511.952385 0a36.568028 36.568028 0 0 0-36.568027 36.568028z" p-id="3722"></path><path d="M511.952385 774.213708L175.793174 438.054496a36.568028 36.568028 0 0 0-51.709476 51.709477l336.159211 336.159211a73.136055 73.136055 0 0 0 103.418953 0l336.25444-336.159211A36.568028 36.568028 0 0 0 848.111597 438.054496zM73.136055 950.863945H950.768716a36.568028 36.568028 0 0 1 36.568027 36.568027 36.568028 36.568028 0 0 1-36.568027 36.568028H73.136055A36.568028 36.568028 0 0 1 36.568028 987.431972a36.568028 36.568028 0 0 1 36.568027-36.568027z" p-id="3723"></path></svg>