<?xml version="1.0" standalone="no"?><!DOCTYPE svg PUBLIC "-//W3C//DTD SVG 1.1//EN" "http://www.w3.org/Graphics/SVG/1.1/DTD/svg11.dtd"><svg t="1576916508214" class="icon" viewBox="0 0 1024 1024" version="1.1" xmlns="http://www.w3.org/2000/svg" p-id="3953" xmlns:xlink="http://www.w3.org/1999/xlink" width="200" height="200"><defs><style type="text/css"></style></defs><path d="M772.980431 499.240395c8.718569 0 15.785521-7.066953 15.785521-15.785521l0-115.625414-258.148431-242.754836-255.55742 0c-63.647599 0-115.428939 51.7752-115.428939 115.415636l0 507.044128c0 63.675228 51.78134 115.479081 115.428939 115.479081l398.277936 0c54.597479 0 102.150518-38.788421 113.069195-92.230588 1.74576-8.541537-3.764744-16.880459-12.305257-18.626219-8.546653-1.747807-16.880459 3.764744-18.625196 12.30628-7.930623 38.810934-42.47437 66.979484-82.138742 66.979484l-398.277936 0c-46.240137 0-83.857896-37.641295-83.857896-83.909062l0-507.044128c0-46.231951 37.618782-83.845617 83.857896-83.845617l220.075301 0 0 157.840888c0 54.986335 44.793182 99.627045 99.764168 99.627045l162.296363 0 0 69.341275C757.19491 492.172419 764.261862 499.240395 772.980431 499.240395z" p-id="3954"></path><path d="M634.054335 505.851976l-354.673835 0c-6.538927 0-11.838629-5.300726-11.838629-11.838629s5.300726-11.838629 11.838629-11.838629l354.673835 0c6.538927 0 11.838629 5.300726 11.838629 11.838629S640.593262 505.851976 634.054335 505.851976z" p-id="3955"></path><path d="M477.651192 618.567108l-198.269669 0c-6.538927 0-11.838629-5.300726-11.838629-11.838629s5.300726-11.838629 11.838629-11.838629l198.269669 0c6.538927 0 11.838629 5.300726 11.838629 11.838629S484.189096 618.567108 477.651192 618.567108z" p-id="3956"></path><path d="M477.651192 731.3508l-198.269669 0c-6.538927 0-11.838629-5.300726-11.838629-11.838629s5.300726-11.838629 11.838629-11.838629l198.269669 0c6.538927 0 11.838629 5.300726 11.838629 11.838629S484.189096 731.3508 477.651192 731.3508z" p-id="3957"></path><path d="M426.872692 285.412378l-147.492192 0c-4.359284 0-7.892761-3.533476-7.892761-7.892761s3.533476-7.892761 7.892761-7.892761l147.492192 0c4.359284 0 7.892761 3.533476 7.892761 7.892761S431.231977 285.412378 426.872692 285.412378z" p-id="3958"></path><path d="M426.872692 368.038214l-147.492192 0c-4.359284 0-7.892761-3.533476-7.892761-7.892761s3.533476-7.892761 7.892761-7.892761l147.492192 0c4.359284 0 7.892761 3.533476 7.892761 7.892761S431.231977 368.038214 426.872692 368.038214z" p-id="3959"></path><path d="M713.293027 684.222433c0 8.68173-7.102768 15.785521-15.785521 15.785521l-147.437957 0c-8.68173 0-15.785521-7.102768-15.785521-15.785521l0-107.810425c0-8.68173 7.102768-15.785521 15.785521-15.785521l147.437957 0c8.68173 0 15.785521 7.102768 15.785521 15.785521L713.293027 684.222433z" p-id="3960"></path><path d="M693.500239 517.768377c0-17.36346 10.986215-22.563902 24.415063-11.555174l126.96774 104.08866c13.428847 11.008728 13.428847 29.021987 0 40.030715l-126.96774 104.084567c-13.428847 11.007705-24.415063 5.808286-24.415063-11.555174L693.500239 517.768377z" p-id="3961"></path></svg>