<?xml version="1.0" standalone="no"?><!DOCTYPE svg PUBLIC "-//W3C//DTD SVG 1.1//EN" "http://www.w3.org/Graphics/SVG/1.1/DTD/svg11.dtd"><svg t="1574414611068" class="icon" viewBox="0 0 1024 1024" version="1.1" xmlns="http://www.w3.org/2000/svg" p-id="2971" xmlns:xlink="http://www.w3.org/1999/xlink" width="200" height="200"><defs><style type="text/css"></style></defs><path d="M601.536 54.272l-421.12 225.536v250.56l80.832-43.392 225.088 120.768v241.536l-42.624 22.848 157.824 84.608 420.736-225.6V279.04L601.6 54.272z m0 597.632c-87.04 0-157.568-65.472-157.568-146.304 0-80.768 70.528-146.24 157.568-146.24S759.04 424.832 759.04 505.6c0 80.832-70.528 146.304-157.504 146.304z" p-id="2972"></path><path d="M180.48 530.368L36.096 607.808v241.472l225.152 120.704 182.4-97.856-263.168-140.992z" p-id="2973"></path><path d="M486.4 607.744L261.184 487.04l-80.768 43.392v200.768l263.232 140.992 42.624-22.848z" p-id="2974"></path><path d="M486.4 607.744L261.184 487.04l-80.768 43.392v200.768l263.232 140.992 42.624-22.848z" p-id="2975"></path></svg>