<?xml version="1.0" standalone="no"?><!DOCTYPE svg PUBLIC "-//W3C//DTD SVG 1.1//EN" "http://www.w3.org/Graphics/SVG/1.1/DTD/svg11.dtd"><svg t="1573790033458" class="icon" viewBox="0 0 1024 1024" version="1.1" xmlns="http://www.w3.org/2000/svg" p-id="2751" xmlns:xlink="http://www.w3.org/1999/xlink" width="200" height="200"><defs><style type="text/css"></style></defs><path d="M254.54933333 279.34833778v-48.26225778l5.36348445-10.72469333v-10.72469334l5.36120889-5.36120888 5.36348444-21.44938667 5.36120889-5.36348445 16.08817778-26.81173333 5.36120889-5.36348445 5.36348444-5.36120888 10.72469334-10.72469334 5.36120888-5.36348444 5.36348445-5.36120889h5.36120889l10.72469333-10.72469333 5.36348445-5.36348445h5.36120888l5.36348445-5.36120889h5.36120889l5.36348444-5.36348444h5.36120889l5.36348445-5.36120889h10.72469333l5.36120889-5.36348445h10.72469333l10.72469333-5.36120888h58.98695112l16.08590222 5.36120888h10.72469333l10.72469333 5.36348445h10.72469334l5.36348444 5.36120889h5.36120889l5.36348445 5.36348444h5.36120888l5.36348445 5.36120889 10.72469333 5.36348445 5.36120889 5.36120888 16.08817778 10.72469334 5.36120889 5.36348444 5.36348444 5.36120889 5.36120889 5.36348445 10.72469333 16.08590222 5.36348445 5.36348444 5.36120889 10.72469334 5.36348444 5.36120888v5.36348445l5.36120889 5.36120889v10.72469333l5.36348445 5.36348445v10.72469333l5.36120888 10.72469333v69.71050667l-5.36120888 10.72469333v10.72469334l-5.36348445 5.36348444v10.72469334l-5.36120889 5.36120888v5.36120889l-5.36348444 5.36348445-5.36120889 10.72469333-5.36348445 5.36120889-10.72469333 16.08817778-5.36120889 5.36120888-5.36348444 5.36348445-5.36120889 5.36120889-16.08817778 10.72469333-5.36120889 5.36348445-10.72469333 5.36120888-5.36348445 5.36348445h-5.36120888l-5.36348445 5.36120889h-5.36120889l-5.36348444 5.36348444h-10.72469334l-5.36120888 5.36120889h-16.08817778l-16.08590222 5.36348445h-58.98695112l-10.72469333-5.36348445h-10.72469333l-5.36120889-5.36120889h-10.72469333l-5.36348445-5.36348444H367.16088889l-5.36348444-5.36120889h-5.3612089l-5.36348444-5.36348445h-5.36120889l-5.36348444-5.36120888-10.72469333-5.36348445-5.3612089-5.36120889-5.36348444-5.36348444-16.08590222-16.08704-5.36348444-5.36348444-5.3612089-5.3612089-5.36348444-10.72469333-5.36120889-5.36348444-5.36348444-10.72469333-5.36120889-5.3612089-5.36348444-21.44938666-5.3612089-5.36120889v-16.08817778l-5.36462222-16.08476444z m139.42328889-262.7584h-10.72469333l-5.36120889 5.36348444H367.16088889l-5.36348444 5.36120889h-10.72469334l-5.36120889 5.36348444h-5.36348444l-5.36120889 5.3612089-37.53756444 16.08817777-5.3612089 5.36120889-16.08817777 10.72469334-5.36120889 5.36348444-5.36348444 5.36120889-5.3612089 5.36348444-5.36348444 5.36120889-5.36120889 5.36348444-16.08817777 21.44938667-5.3612089 5.36120889v5.36348444l-5.36348444 5.3612089-10.72469333 26.8128711-5.36120889 5.3612089v5.36348444l-5.36348444 5.36120889v10.72469333l-5.3612089 10.72469334v10.72469333l-5.36348444 16.08817777v58.98467556l5.36348444 21.44938667v16.08817777l5.3612089 10.72469334v5.36120889l5.36348444 5.36120889v10.72469333l5.36120889 5.36348445v5.36120888l5.36348444 5.36348445v5.36120889l5.36120889 5.36348444v5.36120889l5.36348444 5.36348445 5.3612089 10.72469333 5.36348444 5.36120889 16.08590222 21.44938666 5.36348444 5.36348445 5.3612089 5.36120889 5.36348444 5.36348444 5.36120889 5.36120889 16.08817777 21.44938667-5.36348444 5.36348444h-10.72469333l-5.36120889 5.36120889h-5.36348444l-5.3612089 5.36348445h-5.36348444l-5.36120889 5.36120888H243.82577778l-5.36120889 5.36348445h-5.36348444l-5.3612089 5.36120889h-5.36348444l-5.36120889 5.36348444-10.72469333 5.36120889-5.36348444 5.36348445h-5.3612089l-5.36348444 5.36120888-5.36120889 5.36348445-10.72469333 5.36120889-5.36348444 5.36348444-5.3612089 5.36120889-21.44938666 16.08817778-5.36348444 5.36120889-5.3612089 5.36348444-5.36348444 5.36120889-5.36120889 5.36348445-5.36348444 5.36120888-5.36120889 5.36348445-16.08817778 21.44938667-5.36120889 5.36120888-5.36348444 5.36348445-5.36120889 10.72469333-5.36348444 5.36120889-5.3612089 10.72469333-5.36348444 5.36348445v5.36120889l-5.36120889 5.36348444-21.45393777 48.26908444-5.36348445 5.3612089v5.36348444l-5.36120889 5.36120889v10.72469333l-5.36348444 5.36348444v10.72469334l-5.36120889 10.72469333v10.72469333l-5.36348445 16.08704v26.81287112l-5.36120888 32.17408v107.24920888l5.36120888 5.3612089v5.36348444l5.36348445 5.36120889 5.36120889 5.36348444 5.36348444 5.36120889h10.72469334l489.85770666-2.25621333-1.87733333-8.46848-5.36120889-5.36120889-5.36348444-10.72469334-5.3612089-5.36348444v-5.36120889l-5.36348444-5.36348444v-5.36120889l-5.36120889-5.36348444-5.36348444-5.3612089h-5.36120889l-5.36348444-5.36348444H211.65283555l-137.85201777-4.20408889-1.57013333-70.86990222 5.36348444-16.08704v-16.08817778l5.36120889-16.08590222v-16.08817778l5.36348444-5.36120889v-16.08817778l5.36120889-5.36120888v-10.72469334l5.36348444-5.36348444v-5.36120889l5.3612089-5.36348445v-10.72469333l5.36348444-5.36120889v-5.36348444l5.36120889-5.36120889v-5.36348445l5.36348444-5.36120888 5.36120889-10.72469334 5.36348444-5.36348444 5.3612089-10.72241778 5.36348444-5.36348444 5.36120889-5.36120889 5.36348444-10.72469333 5.36120889-5.36348445 5.36348444-5.36120889 5.3612089-5.36348444 10.72469333-10.72469334 5.36348444-5.36120888 5.36120889-5.36348445 5.36348444-5.36120889 16.08590223-10.72469333 5.36348444-5.36348445 5.36120889-5.36120888 10.72469334-5.36348445 5.36348444-5.36120889 21.44938666-10.72469333 5.3612089-5.36348445h5.36348444l5.36120889-5.36120888h5.36348444l5.36120889-5.36348445h10.72469334l5.36348444-5.36120889h5.36120889l5.36348444-5.36348444h5.36120889l5.36348444-5.36120889h10.72469334l5.36120889-5.36348445h10.72469333l10.72469334-5.36120888h10.72469333l21.44938667-5.36348445h32.17408l26.8128711-5.36120889h37.53642667l16.08817778-5.36348444h10.72469333l10.72469334-5.36120889h10.72469333l5.36120889-5.36348445h10.72469333l5.36348445-5.36120888h5.36120888l5.36348445-5.36348445h5.36120889l5.36348444-5.36120889h5.36120889l5.36348445-5.36348444 10.72469333-5.36120889 5.36120889-5.36348445 48.26225778-48.25998222 5.36120888-5.36348444 5.36348445-10.72469334 5.36120889-5.36120888 16.08817778-37.53756445 5.36120888-5.36120889v-5.36348444l5.36348445-5.36120889v-10.72469333l5.36120889-5.3612089v-10.72469333l5.36348444-10.72469333v-85.79868444l-5.36348444-10.72469334v-10.72469333l-5.36120889-5.36348445v-10.72469333l-5.36348445-5.36120889v-5.36348444l-5.36120888-5.36120889v-5.36348445l-5.36348445-5.36120888-5.36120889-10.72469334-5.36348444-5.36348444-5.36120889-10.72469334-5.36348445-5.36120888-5.36120888-10.72469334-5.36348445-5.36348444-5.36120889-5.36120889-5.36348444-10.72469333-21.44938667-16.08817778-5.36120889-5.36120889-5.36348444-5.36348445-10.72469334-5.36120888-5.36120888-5.36348445-26.81287112-10.72469333-5.36120888-5.36120889h-5.36348445l-5.36120889-5.36348445h-10.72469333l-5.36348445-5.36120888h-10.72469333l-5.36120889-5.36348445h-10.72469333l-5.36348445-5.36120889H399.33496889l-5.36348444 5.36120889 0.00113777-0.00910222z" p-id="2752"></path><path d="M538.75825778 729.78887111l5.36120889-5.36348444 5.36348444-5.36120889 5.36120889-5.36348445h10.72469333l5.36348445-5.36120888 26.81173333-10.72469334 5.36348444-5.36348444 5.3612089-5.36120889 5.36348444-5.36348445 5.36120889-5.36120888v-5.3612089l5.36348444-5.36348444v-5.36120889l5.36120889-5.36348444v-10.72469333l5.36348444-10.72469334 5.3612089-53.62460444 5.36348444-5.36120889 10.72469333-5.36348445 5.36120889-5.36120888h5.36348444l9.65290667-4.29056 6.43413333 4.29056 16.08817778 5.36120888 5.36120889 5.36348445 10.72469333 5.36120889 5.36348445 5.36348444h5.36120889l5.36348444 5.36120889h53.62346667l5.36120889-5.36120889h10.72469333l5.36348445-5.36348444 5.36120888-5.36120889 10.72469334-5.36348445 5.36348444-5.36120888h26.81059556l5.36348444 5.36120888h5.36120889l5.36348445 5.36348445 8.84394666 7.46496 1.88074667 13.98442667v48.25998222l5.36120889 5.36348444v5.36120889l5.36348444 5.36348445v5.36120888l5.36120889 5.36348445 5.36348445 10.72241777 5.36120888 5.36348445 5.36348445 5.36120889 16.08590222 10.72469333 5.36348445 5.36348445h5.36120888l10.72469334 5.36120888h10.72469333l5.36348445 5.36348445 5.36120888 5.36120889 5.36348445 5.36348444v42.89991112l-5.36348445 5.36120888-5.36120888 5.36348445-5.36348445 5.36120889h-5.36120889l-5.36348444 5.36348444h-10.72469334l-5.36120888 5.36120889h-5.36348445l-5.36120889 5.36348445-10.72469333 5.36120888-5.36348445 5.36348445-10.72469333 16.08590222-5.36120889 5.36348445v5.36120888l-5.36348444 5.36348445v10.72469333l-5.36120889 10.72469334V922.83335111l-5.36348445 5.36120889h-5.36120888l-5.36348445 5.36348445H860.50133333l-5.36348444 5.36120888h-5.36120889l-6.70492445 4.85489778-9.38325333-4.85489778h-5.36120889l-5.36348444-5.36120888h-5.36120889l-5.36348445-5.36348445-37.53642666-16.08590222h-48.26112l-5.36120889 5.36120889h-5.36348445l-5.36120888 5.36348444-10.72469334 5.36120889-5.36348444 5.36348445-37.53642667 5.36120888-5.36348444-5.36120888-10.72469333-5.36348445-5.3612089-5.36120889v-58.98808889l-5.36348444-10.72469333v-5.36120889l-5.36120889-5.36348445v-5.36120888l-5.36348444-5.36348445-5.36120889-5.36120889-10.72469334-10.72469333-5.36348444-5.36348445-5.36120889-5.36120888-16.08817777-10.72469334h-10.72469334l-5.36120889-5.36348444-16.08817777-10.72469334-5.3612089-5.36120888-0.00113777-42.89763556z m123.33397333-219.85735111l-16.08590222 5.36120889-5.36348444 5.36348444h-5.3612089l-5.36348444 5.36120889h-5.36120889l-5.36348444 5.36348445h-5.36120889l-16.08817778 10.72469333-5.36120889 5.36120889-5.36348444 5.36348444-5.36120889 5.36120889V601.09141333c4.80028445 8.60501333 5.36120889 4.57728 5.36120889 16.08817778 0 12.50304-0.98759111 7.20213333-5.36120889 16.08704v5.36348444l-5.36348444 5.3612089-10.72469334 10.72469333-5.36120889 5.36348444h-5.36348444l-5.36120889 5.36120889h-10.72469334l-16.08817777 5.36348444h-10.72469333l-5.3612089 5.3612089-5.36348444 5.36120888-5.36120889 5.36348445v123.33397333l6.20430223 15.55911111 15.24508444 5.89027556 10.72469333 5.36348444h16.08590223l5.36348444 5.36120889 10.72469333 5.36348444h5.36120889l5.36348444 5.3612089 5.3612089 5.36348444v5.36120889c18.95765333 23.63050667 5.36348445 38.21909333 5.36348444 69.71278222v10.72469333l5.36120889 5.36120889 10.72469333 10.72469333 5.36348444 5.36348445h5.3612089l5.36348444 5.36120889 21.44938666 10.72469333 5.3612089 5.36348445h5.36348444l5.36120889 5.36120888h5.36348444l5.36120889 5.36348445h32.17408l5.36348444-5.36348445 10.72469334-5.36120888 5.36120889-5.36348445 16.08817777-10.72469333 5.3612089-5.36120889h5.36348444l5.36120889-5.36348445 37.53756444 10.72469334 5.36120889 5.36348444 5.36348444 5.36120889 10.72469334 5.36348445 5.36120889 5.36120888h5.36348444l5.36120889 5.36348445 10.72469334 5.36120889h10.72469333l10.72469333-5.36120889 5.36348444-5.36348445h5.3612089l5.36348444-5.36120888 10.72469333-5.36348445 5.36120889-5.36120889 26.81287111-16.08817778 5.36120889-5.36120888 10.72469334-5.36348445 5.36348444-5.36120889V912.11093333l-5.36348444-10.72469333v-21.44938667l5.36348444-5.36348444 21.44938666-26.81059556 5.3612089-5.36348444h5.36348444l5.36120889-5.36120889h16.08817777l21.44938667-5.36348445 5.36120889-10.72469333 5.36348444-5.36120889V686.89123555l-5.36348444-5.36348444-5.36120889-5.36120889-5.36348444-5.36120889h-10.72469333l-16.08704-5.36348444h-10.72469334l-5.36348444-5.36120889h-5.36120889l-5.36348445-5.36348445-5.36120888-5.36120888-5.36348445-5.36348445-5.36120889-5.36120889v-5.36348444l-5.36348444-5.36120889v-26.81287111l5.36348444-5.36120889V558.19377778l-5.36348444-5.36120889-5.36120889-5.36348444-5.36348445-5.3612089h-5.36120888l-5.36348445-5.36348444-5.36120889-5.36120889h-5.36348444l-5.36120889-5.36348444h-5.36348445l-5.36120888-5.36120889h-5.36348445l-5.36120889-5.36348444h-5.36348444l-5.36120889-5.3612089h-5.36348445l-5.36120888-5.36348444H822.96149333l-5.36120888 5.36348444-10.72469334 5.3612089-5.36348444 5.36348444-10.72469334 5.36120889-5.36120888 5.36348444-16.08817778 5.36120889-10.91470222 5.7344-10.53468445-5.7344h-5.36120889l-5.36348444-5.36120889h-5.36120889l-5.36348445-5.36348444-5.36120888-5.36120889-10.72469334-5.36348444-5.36348444-5.3612089h-5.36120889l-5.36348445-5.36348444H667.45457778l-5.36234667 5.36120889z" p-id="2753"></path><path d="M796.15317333 778.05226667l-5.36348444 5.36348444-5.36120889 5.36120889-16.08817778 5.36348445-15.76163555 6.31352888-11.04896-6.31352888H737.16622222l-5.36120889-5.36348445-10.72469333-10.72469333-5.36348445-5.36120889v-5.36348445l-5.36120888-5.36120888v-21.44938667l5.36120888-5.36348445v-5.36120888l5.36348445-5.36348445 5.36120889-5.36120889 5.36348444-5.36348444 42.89991112-5.36120889 5.36120888 5.36120889h5.36348445l5.36120889 5.36348444 5.36348444 5.36120889v5.36348445l5.36120889 5.36120888v5.36348445l5.7344 10.53468444-5.7344 10.91584-5.36234667 16.08476445z m-69.71278222-117.97162667h-10.72469333l-5.36120889 5.36120889h-5.36348444l-5.3612089 5.36348444-10.72469333 5.36120889-5.36348444 5.36120889-5.36120889 5.36348444-5.36348444 5.3612089-10.72469334 26.8128711-5.36120889 5.3612089v53.62460444l5.36120889 5.36348444v10.72469334l5.36348444 5.36120888 5.3612089 10.72469334 5.36348444 5.36348444 5.36120889 5.36120889 5.36348444 5.36348445 5.36120889 5.36120888h5.36348444l5.3612089 5.36348445h5.36348444l5.36120889 5.36120889h5.36348444l10.72469333 5.36348444h53.62460445l5.36120889-5.36348444h10.72469333l5.36348445-5.36120889h5.36120888l5.36348445-5.36348445 26.81173333-26.81173333 5.36348445-5.36348444v-5.36120889l5.36120889-5.36348444v-10.72469334l5.36348444-10.72469333V735.15235555l-5.36348444-10.72469333v-5.36120889l-5.36120889-5.36348444v-10.72469334l-5.36348445-5.36120888-5.36120888-5.36348445-5.36348445-10.72469333-10.72469333-5.36120889-5.36120889-5.36120889-16.08817778-5.36348444-5.36120889-5.36120889h-10.72469333l-10.72469333-5.36348445H737.16622222l-10.72583111 5.36234667z" p-id="2754"></path></svg>