<?xml version="1.0" standalone="no"?><!DOCTYPE svg PUBLIC "-//W3C//DTD SVG 1.1//EN" "http://www.w3.org/Graphics/SVG/1.1/DTD/svg11.dtd"><svg t="1573789956395" class="icon" viewBox="0 0 1024 1024" version="1.1" xmlns="http://www.w3.org/2000/svg" p-id="2528" xmlns:xlink="http://www.w3.org/1999/xlink" width="200" height="200"><defs><style type="text/css"></style></defs><path d="M791.13481482 1014.19994075H599.5026963c-20.26761482 0-36.0448-15.77718518-36.0448-36.0448V764.43496297s0-0.60681482-0.60681482-0.60681482h-111.16847407s-0.60681482 0-0.60681482 0.60681482v213.72017778c0 20.26761482-15.77718518 36.0448-36.0448 36.0448h-191.75348148c-59.9533037 0-108.61985185-48.66654815-108.61985186-108.61985186V589.06548148h-22.08805925c-34.10299259 0-64.44373333-20.26761482-77.6722963-51.21517037-13.22856297-30.94755555-6.91768889-66.99235555 16.384-91.62903703l366.39478519-387.14785186c29.73392592-31.55437037 71.36142222-49.27336297 114.32391111-49.27336297s84.58998518 17.71899259 114.32391111 49.27336297l366.39478519 387.14785186c23.42305185 24.63668148 29.73392592 60.68148148 16.384 91.62903703-13.22856297 30.94755555-43.5693037 51.21517037-77.6722963 51.21517037h-30.94755555v316.51460741c0 59.9533037-48.66654815 108.61985185-109.34802963 108.61985186z m-155.58731852-72.0896H791.13481482c20.26761482 0 37.25842963-16.384 37.25842963-37.25842964V552.41386667c0-20.26761482 15.77718518-36.0448 36.0448-36.0448h66.99235555c3.76225185 0 9.46631111-1.94180741 11.40811852-7.5245037 2.54862222-5.70405925 0-10.67994075-2.54862222-13.95674075L573.89511111 107.73997037c-16.384-17.11217778-38.47205925-26.57848889-61.89511111-26.57848889s-46.11792592 9.46631111-61.89511111 26.57848889L83.7101037 495.616c-2.54862222 3.15543703-5.09724445 8.25268148-2.54862222 13.95674075s7.5245037 7.5245037 11.40811852 7.5245037h57.52604445c20.26761482 0 36.0448 15.77718518 36.0448 36.0448v352.43804444c0 20.26761482 16.384 37.25842963 37.25842963 37.25842963H379.71437037V765.04177778c0-39.80705185 32.16118518-72.69641482 72.69641481-72.69641481h111.16847407c39.80705185 0 72.69641482 32.16118518 72.69641483 72.69641481l-0.72817778 177.06856297z" p-id="2529"></path></svg>