<?xml version="1.0" standalone="no"?><!DOCTYPE svg PUBLIC "-//W3C//DTD SVG 1.1//EN" "http://www.w3.org/Graphics/SVG/1.1/DTD/svg11.dtd"><svg t="1573790151238" class="icon" viewBox="0 0 1024 1024" version="1.1" xmlns="http://www.w3.org/2000/svg" p-id="3204" xmlns:xlink="http://www.w3.org/1999/xlink" width="200" height="200"><defs><style type="text/css"></style></defs><path d="M956.723246 813.437353h0.075724v-0.449231l-0.075724 0.449231z" p-id="3205"></path><path d="M511.789711 994.141972c-10.163477 0-20.11513-3.678786-27.949563-11.244089L365.691261 868.823801c-15.45704-14.922874-15.45704-38.842657 0-53.766554 15.45704-14.922874 40.23026-14.922874 55.6873 0l90.412173 87.293135 90.412172-87.293135c7.410783-7.154957 17.362436-11.244089 27.949563-11.244088h275.679713c21.808702 0 39.382962-16.96744 39.382962-38.025035V157.399843c0-20.85191-17.574261-38.025035-39.382962-38.025035H118.171911c-21.596877 0-39.382962 17.173125-39.382962 38.025035v608.391351c0 21.056572 17.786085 38.025035 39.382962 38.025035h118.148887c21.808702 0 39.382962 16.96744 39.382963 38.025035s-17.574261 38.025035-39.382963 38.025035H118.171911c-65.215304 0-118.148887-51.108005-118.148887-114.074082V157.399843c0-62.966077 52.934606-114.074082 118.148887-114.074082h787.658224c65.215304 0 118.148887 51.108005 118.148887 114.074082v608.391351c0 62.966077-52.934606 114.074082-118.148887 114.074081H646.242935L539.739273 982.898907c-7.622608 7.358595-17.786085 11.243065-27.949562 11.243065z" p-id="3206"></path><path d="M295.184441 499.621065c-32.607652 0-59.074444-25.554002-59.074444-57.037041s26.466792-57.037041 59.074444-57.037041 59.074444 25.554002 59.074443 57.037041-26.467815 57.037041-59.074443 57.037041z m236.296751 0c-32.607652 0-59.074444-25.554002-59.074444-57.037041s26.466792-57.037041 59.074444-57.037041 59.074444 25.554002 59.074443 57.037041-26.466792 57.037041-59.074443 57.037041z m236.508575 0c-32.607652 0-59.074444-25.554002-59.074444-57.037041s26.466792-57.037041 59.074444-57.037041 59.074444 25.554002 59.074443 57.037041-26.678616 57.037041-59.074443 57.037041z" p-id="3207"></path></svg>