<?xml version="1.0" standalone="no"?><!DOCTYPE svg PUBLIC "-//W3C//DTD SVG 1.1//EN" "http://www.w3.org/Graphics/SVG/1.1/DTD/svg11.dtd"><svg t="1573790081722" class="icon" viewBox="0 0 1024 1024" version="1.1" xmlns="http://www.w3.org/2000/svg" p-id="2981" xmlns:xlink="http://www.w3.org/1999/xlink" width="200" height="200"><defs><style type="text/css"></style></defs><path d="M357.23421547 474.25903573H124.3293536A116.62047147 116.62047147 0 0 1 7.87692267 357.89062613V124.98576426C7.87692267 60.79409279 60.13768213 8.53333333 124.3293536 8.53333333h232.90486187c64.19167147 0 116.36841067 52.26075947 116.36841066 116.45243093v232.90486187c0 64.19167147-52.17673813 116.36841067-116.36841066 116.3684096zM124.3293536 86.08426666a38.9014976 38.9014976 0 0 0-38.81747627 38.9014976v232.90486187c0 21.34121067 17.3922464 38.81747733 38.81747627 38.81747626h232.90486187a38.9014976 38.9014976 0 0 0 38.81747733-38.81747626V124.98576426a38.9014976 38.9014976 0 0 0-38.81747733-38.81747733H124.3293536z m232.90486187 931.6194464H124.3293536A116.62047147 116.62047147 0 0 1 7.87692267 901.25128213V668.34642026c0-64.19167147 52.26075947-116.45243093 116.45243093-116.45243093h232.90486187c64.19167147 0 116.36841067 52.26075947 116.36841066 116.45243093v232.90486187c0 64.19167147-52.17673813 116.45243093-116.36841066 116.45243093zM124.3293536 629.44492266a38.81747733 38.81747733 0 0 0-38.81747627 38.81747733v232.90486187c0 21.42523093 17.3922464 38.81747733 38.81747627 38.81747627h232.90486187a38.81747733 38.81747733 0 0 0 38.81747733-38.81747627V668.34642026a38.81747733 38.81747733 0 0 0-38.81747733-38.81747627H124.3293536z m772.4845952-155.2699072H663.90908693a116.62047147 116.62047147 0 0 1-116.45243093-116.36841067V124.98576426C547.456656 60.79409279 599.71741547 8.53333333 663.90908693 8.53333333h232.90486187c64.19167147 0 116.45243093 52.26075947 116.45243093 116.45243093v232.90486187c0 64.19167147-52.26075947 116.36841067-116.45243093 116.3684096zM663.90908693 86.08426666a38.81747733 38.81747733 0 0 0-38.81747626 38.9014976v232.90486187c0 21.34121067 17.3922464 38.81747733 38.81747626 38.81747626h232.90486187a38.81747733 38.81747733 0 0 0 38.81747733-38.81747626V124.98576426a38.81747733 38.81747733 0 0 0-38.81747733-38.81747733H663.90908693z m232.90486187 931.6194464H663.90908693a116.62047147 116.62047147 0 0 1-116.45243093-116.45243093V668.34642026c0-64.19167147 52.26075947-116.45243093 116.45243093-116.45243093h232.90486187c64.19167147 0 116.45243093 52.26075947 116.45243093 116.45243093v232.90486187c0 64.19167147-52.26075947 116.45243093-116.45243093 116.45243093zM663.90908693 629.44492266a38.81747733 38.81747733 0 0 0-38.81747626 38.81747733v232.90486187c0 21.42523093 17.3922464 38.81747733 38.81747626 38.81747627h232.90486187a38.81747733 38.81747733 0 0 0 38.81747733-38.81747627V668.34642026a38.81747733 38.81747733 0 0 0-38.81747733-38.81747627H663.90908693z" p-id="2982"></path></svg>