<?xml version="1.0" standalone="no"?><!DOCTYPE svg PUBLIC "-//W3C//DTD SVG 1.1//EN" "http://www.w3.org/Graphics/SVG/1.1/DTD/svg11.dtd"><svg t="1576483540881" class="icon" viewBox="0 0 1024 1024" version="1.1" xmlns="http://www.w3.org/2000/svg" p-id="3903" xmlns:xlink="http://www.w3.org/1999/xlink" width="200" height="200"><defs><style type="text/css"></style></defs><path d="M921.569 103.796H102.4A102.4 102.4 0 0 0 0 206.196V820.69a102.4 102.4 0 0 0 102.4 102.4h819.169A102.4 102.4 0 0 0 1024 820.69V206.227a102.4 102.4 0 0 0-102.431-102.43z m34.195 488.697a136.844 136.844 0 0 0-148.231 30.006L715.9 714.162c-1.893-2.11-3.258-4.468-5.275-6.454l-290.01-290.102a136.72 136.72 0 0 0-193.318 0L68.267 576.698V274.463a102.4 102.4 0 0 1 102.4-102.4h682.666a102.462 102.462 0 0 1 102.431 102.4v318.03z m-221.897-318.03a119.467 119.467 0 1 0 0 238.933 119.467 119.467 0 0 0 0-238.933z" p-id="3904"></path></svg>