<?xml version="1.0" standalone="no"?><!DOCTYPE svg PUBLIC "-//W3C//DTD SVG 1.1//EN" "http://www.w3.org/Graphics/SVG/1.1/DTD/svg11.dtd"><svg t="1573636545630" class="icon" viewBox="0 0 1024 1024" version="1.1" xmlns="http://www.w3.org/2000/svg" p-id="2843" xmlns:xlink="http://www.w3.org/1999/xlink" width="200" height="200"><defs><style type="text/css"></style></defs><path d="M867.63825949 873.64463502L868.57250247 387.76137956 905.81095083 387.76137956C927.36427122 387.76137956 930.97411811 377.26686208 914.12455765 364.51107499L513.39181397 61.1405039C504.89726066 54.70978958 491.3443419 55.01544334 482.90550784 62.00118841L103.42956829 376.13492338C86.94672157 389.77958116 91.31358891 401.21995264 112.70011563 401.67737686L150.02409757 402.47568157 151.60062862 874.4339092 84.80236999 874.4339092 85.61983147 941.64220928 933.73583815 942.37510542 932.97676629 875.44868637 867.63825949 873.64463502ZM225.22378695 451.48789078L333.94612907 452.72817323 333.94612907 544.62208797 225.22378695 544.17107627 225.22378695 451.48789078 225.22378695 451.48789078ZM334.00451869 728.65128107L225.34056733 728.2566474 225.34056733 635.68621113 334.00451869 636.70099172 334.00451869 728.65128107 334.00451869 728.65128107ZM448.31041081 269.91460238L557.03275065 271.15488825 557.03275065 363.04880413 448.31041081 362.65416704 448.31041081 269.91460238 448.31041081 269.91460238ZM448.31041081 451.48789078L556.91597027 452.72817323 556.91597027 544.62208797 448.31041081 544.11470166 448.31041081 451.48789078 448.31041081 451.48789078ZM557.14953102 860.10688968L448.31041081 859.43037156 448.31041081 635.68621113 557.14953102 635.68621113 557.14953102 860.10688968ZM665.96620061 451.48789078L774.51337045 452.72817323 774.51337045 544.62208797 665.96620061 544.11470166 665.96620061 451.48789078 665.96620061 451.48789078ZM665.96620061 635.62983652L774.7469312 636.64461369 774.7469312 728.65128107 665.96620061 728.2566474 665.96620061 635.62983652 665.96620061 635.62983652Z" p-id="2844"></path></svg>