<?xml version="1.0" standalone="no"?><!DOCTYPE svg PUBLIC "-//W3C//DTD SVG 1.1//EN" "http://www.w3.org/Graphics/SVG/1.1/DTD/svg11.dtd"><svg t="1573636606458" class="icon" viewBox="0 0 1024 1024" version="1.1" xmlns="http://www.w3.org/2000/svg" p-id="3180" xmlns:xlink="http://www.w3.org/1999/xlink" width="200" height="200"><defs><style type="text/css"></style></defs><path d="M778.02723555 427.85450667c0.32426667-0.21617778 0.53930667-0.53930667 0.75548445-0.86243556 2.05027555-2.58958222 6.36472889-7.01212445 12.51441778-7.01212444 4.42254222 0 9.38439111 2.26531555 14.56355555 6.79594666l0.75434667 0.64853334 0.86357333 0.43008c0.10808889 0.10808889 15.53408 7.33639111 30.20572445 31.93287111 13.80807111 23.08551111 29.66641778 66.45304889 27.40110222 141.75118222l-0.10808889 2.91271111 56.85134222 56.63630222 3.99246222-9.06126222c0.53930667-1.18670222 13.05258667-30.20686222 23.40864-72.06343111 9.60170667-38.61959111 18.98723555-95.68711111 9.38666667-148.44017778-0.21617778-4.20750222-2.26645333-28.04849778-22.54734222-65.05016889-19.84967111-36.24732445-61.81432889-93.09866667-149.51879111-158.14997333l-2.15836444-1.61792-2.58844445 0.32426667s-2.37340445 0.21617778-6.0416 0.21617778c-9.70865778 0-34.08896-1.72714667-49.408-18.2328889-11.00344889-11.75779555-15.75025778-29.23406222-14.1312-51.78026666l0.21504-3.12888889-72.92586667-73.03395555-129.66912 129.66912 65.15825778 65.15939555 2.58844444 0.10695111c0.64853333 0 66.02183111 3.23697778 89.64778667 40.77795556 11.75779555 18.66296889 11.32657778 43.25944889-1.18670222 73.25013333l-213.70766222 215.32444445-41.64039111-6.14855112-251.46368 251.57176889-0.43235556 1.72600889c-0.75434667 2.58844445-17.58435555 64.29582222 27.83345778 103.56280889 3.88323555 4.42254222 31.93173333 34.30513778 87.05706666 34.30513778 1.40288 0 2.69653333 0 4.09941334-0.10808889l2.80462222-0.10695111 246.71800889-256.1024 4.63872-41.53457778 246.06947555-244.66773333z" fill="" p-id="3181"></path><path d="M254.38663111 474.89024c40.45482667 0 73.35708445-12.40632889 85.00792889-17.47626667l79.93799111 80.04494222 115.86104889-115.8599111-83.17383111-83.1749689c21.79185778-52.10567111 22.54620445-100.75818667 2.48035556-144.6650311-22.54620445-49.19182222-67.63861333-83.17383111-101.62062223-102.91541334-36.46236445-21.25255111-67.31548445-30.96120889-68.61027555-31.39242666l-0.21617778-0.1080889c-7.01212445-1.94218667-13.37685333-2.80462222-18.87800889-2.80462222-10.03292445 0-17.47626667 3.12888889-22.22307555 9.27744-7.65952 9.92483555-4.53063111 23.40977778-4.09941334 24.91960889l0.53930667 2.15722667 1.72600889 1.40288c82.20330667 67.85592889 80.47729778 94.50154667 79.93799111 97.84547556l-0.43235556 0.43235555-0.21617777 1.94104889c-4.85376 36.57045333-21.25141333 68.28714667-48.43633778 94.17728-20.06584889 19.09532445-38.94385778 27.83345778-40.02247112 28.26467556-9.0624 3.88323555-18.44792889 5.82542222-27.83232 5.82542222-60.95075555 0-109.38936889-80.69347555-109.82058666-81.44782222l-1.61792-2.69653334-3.0208-0.54044444c-2.26531555-0.43235555-4.42254222-0.64739555-6.47281778-0.64739556-7.22716445 0-13.26876445 2.48149333-17.58435556 7.22830222-8.41386667 9.27744-7.11907555 23.73404445-7.01212444 25.35082667v0.43235555l0.10808889 0.43121778c38.18951111 168.61297778 127.51189333 203.99786667 195.69095111 203.99786667z m690.20444444 353.62474667l-248.3347911-239.27466667-117.04775112 116.9408 235.60533334 250.49315555c0.86357333 0.97052445 8.84622222 9.27744 18.55488 9.27744 9.49361778 0 15.53521778-5.39420445 16.18261333-6.0416l97.08999111-97.0899911c1.40174222-1.29479111 5.93351111-6.36472889 5.93351111-16.28956445 0.10808889-10.24910222-6.47395555-16.72192-7.98378667-18.01557333zM806.07573333 873.39235555l-13.26876444-40.99413333c-0.64739555-2.48035555 0.21617778-4.96184889 2.26531556-6.68899555l34.73635555-25.24273778c1.07975111-0.64853333 2.26645333-1.07861333 3.56124445-1.07861334s2.48035555 0.32312889 3.55896888 1.07861334l34.84444445 25.24273778a6.54449778 6.54449778 0 0 1 2.15836444 6.68899555l-13.26990222 40.99413333c-0.97052445 2.37340445-3.23584 4.09941333-5.71733333 4.20636445h-43.04213334c-2.58958222-0.10695111-4.85489778-1.72600889-5.82542222-4.20636445z" p-id="3182"></path></svg>