<?xml version="1.0" standalone="no"?><!DOCTYPE svg PUBLIC "-//W3C//DTD SVG 1.1//EN" "http://www.w3.org/Graphics/SVG/1.1/DTD/svg11.dtd"><svg t="1573789999780" class="icon" viewBox="0 0 1024 1024" version="1.1" xmlns="http://www.w3.org/2000/svg" p-id="2639" xmlns:xlink="http://www.w3.org/1999/xlink" width="200" height="200"><defs><style type="text/css"></style></defs><path d="M941.273689 218.12291a61.990545 61.990545 0 0 0-36.125026-49.852537L536.673393 6.285755a61.195795 61.195795 0 0 0-49.708036 0l-368.47527 162.490369a61.484795 61.484795 0 0 0-36.125027 49.274536C65.025048 360.311014 35.691526 888.675651 497.658364 1020.676498a60.039794 60.039794 0 0 0 16.689763 2.312001 55.993791 55.993791 0 0 0 13.43851-1.517251c85.616313-19.001764 484.797855-144.500106 413.487052-803.348338z m-96.52607 380.685529c-22.686517 82.943061-59.461794 153.748113-109.16983 210.464404a439.858322 439.858322 0 0 1-132.000847 103.028575 409.3688 409.3688 0 0 1-88.795315 33.524025 504.88337 504.88337 0 0 1-127.304593-56.571792A437.979821 437.979821 0 0 1 292.973965 809.200593c-48.479786-55.12679-85.182812-124.703591-109.16983-207.068652-43.350032-148.112608-34.029775-299.83772-26.94927-366.235518L511.747125 79.475058l354.025259 155.843364c14.450011 138.503351 7.225005 260.822691-21.024765 363.634517z" p-id="2640"></path><path d="M609.645947 490.288859a139.225852 139.225852 0 1 0-195.075143 0 239.797926 239.797926 0 0 0-142.043604 218.55641h61.412545a178.09638 178.09638 0 1 1 356.19276 0H751.40055a239.870176 239.870176 0 0 0-141.754603-218.55641z m-97.754322-21.675016a77.813307 77.813307 0 1 1 77.813307-77.524307A77.885557 77.885557 0 0 1 511.891625 468.902843z" p-id="2641"></path></svg>