<?xml version="1.0" standalone="no"?><!DOCTYPE svg PUBLIC "-//W3C//DTD SVG 1.1//EN" "http://www.w3.org/Graphics/SVG/1.1/DTD/svg11.dtd"><svg t="1577353292561" class="icon" viewBox="0 0 1024 1024" version="1.1" xmlns="http://www.w3.org/2000/svg" p-id="1306" xmlns:xlink="http://www.w3.org/1999/xlink" width="24" height="24"><defs><style type="text/css"></style></defs><path d="M913.8246791 429.14955022c-41.42522429 0-74.56540445 20.71261275-91.13549392 62.13783703h-120.13315201c-4.14252206-24.85513482-16.57008947-57.99531498-33.14017894-82.85044857l41.42522429-41.42522551c12.42756741 8.28504534 33.14018016 12.42756741 49.71026963 12.42756742 53.85279169 0 95.27801719-41.42522429 95.27801719-95.27801598 0-53.85279169-41.42522429-95.27801719-95.27801719-95.2780172s-95.27801719 41.42522429-95.2780172 95.2780172c0 16.57008947 4.14252206 33.14018016 12.42756741 45.56774634l-41.42522428 41.4252255c-24.85513482-20.71261275-53.85279169-33.14018016-91.13549392-37.28270222V201.31081482c37.28270222-8.28504534 74.56540445-45.56774756 74.56540445-91.13549392 0-53.85279169-41.42522429-95.27801719-95.2780172-95.2780172C470.57477571 14.8973037 429.14955022 56.32252799 429.14955022 110.1753209c0 41.42522429 28.99765689 78.70792651 66.28036031 91.13549392v132.56071941c-37.28270222 4.14252206-70.42288238 20.71261275-95.2780172 41.42522429l-37.28270222-37.28270222c8.28504534-16.57008947 16.57008947-33.14018016 16.57008948-49.71026963 0-53.85279169-41.42522429-95.27801719-95.27801598-95.2780172C222.02342756 193.02576947 180.59820206 234.45099498 180.59820206 284.16126461c0 53.85279169 41.42522429 95.27801719 95.27801719 95.27801598 16.57008947 0 28.99765689-4.14252206 41.4252243-8.28504414l41.4252255 41.4252243c-16.57008947 24.85513482-28.99765689 53.85279169-33.14018016 78.7079265h-124.27567407c-16.57008947-37.28270222-49.71026963-62.13783703-91.13549392-62.13783703C56.32252799 429.14955022 14.8973037 470.57477571 14.8973037 524.42756741c0 53.85279169 41.42522429 95.27801719 95.2780172 95.2780172 45.56774756 0 86.99297185-37.28270222 95.27801599-78.70792772h120.133152c4.14252206 37.28270222 16.57008947 66.2803591 41.42522428 95.27801719l-45.56774634 41.42522428c-12.42756741-8.28504534-28.99765689-12.42756741-45.56774758-12.42756741C222.02342756 665.27333095 180.59820206 706.69855645 180.59820206 760.55134815c0 53.85279169 41.42522429 95.27801719 95.27801719 95.27801719s95.27801719-41.42522429 95.2780172-95.27801719c0-16.57008947-4.14252206-33.14018016-12.4275674-49.71026963l41.42522428-41.42522429c24.85513482 16.57008947 62.13783703 33.14018016 86.99297185 37.28270222v115.99062873c-37.28270222 12.42756741-66.2803591 49.71026963-66.2803591 91.13549392 0 53.85279169 41.42522429 95.27801719 95.27801598 95.2780172s95.27801719-41.42522429 95.27801719-95.2780172c0-45.56774756-33.14018016-82.85044978-74.56540443-91.13549392v-115.99062873c24.85513482-4.14252206 57.99531498-16.57008947 82.85044979-33.14018015l49.71026962 49.71026962c-4.14252206 12.42756741-8.28504534 24.85513482-8.28504534 41.4252243 0 53.85279169 41.42522429 95.27801719 95.27801719 95.27801719 53.85279169 0 95.27801719-41.42522429 95.27801598-95.27801719 0-53.85279169-41.42522429-95.27801719-95.27801598-95.27801599-20.71261275 0-37.28270222 4.14252206-53.85279291 16.57008947l-45.56774634-45.56774756c24.85513482-28.99765689 37.28270222-57.99531498 41.42522428-99.42053925h115.99062873c8.28504534 37.28270222 45.56774756 78.70792651 95.27801719 78.70792772 53.85279169 0 95.27801719-41.42522429 95.2780172-95.2780172C1009.1026963 470.57477571 967.67747201 429.14955022 913.8246791 429.14955022" p-id="1307"></path></svg>