<?xml version="1.0" standalone="no"?><!DOCTYPE svg PUBLIC "-//W3C//DTD SVG 1.1//EN" "http://www.w3.org/Graphics/SVG/1.1/DTD/svg11.dtd"><svg t="1573636062049" class="icon" viewBox="0 0 1024 1024" version="1.1" xmlns="http://www.w3.org/2000/svg" p-id="9118" xmlns:xlink="http://www.w3.org/1999/xlink" width="200" height="200"><defs><style type="text/css"></style></defs><path d="M497.777778 849.842424c-2.456566 0.258586-4.137374 0.517172-5.818182 0.517172-46.416162 0.387879-92.70303-2.19798-138.989899-6.593939-33.616162-3.232323-67.361616-6.593939-100.848485-10.989899-22.884848-3.10303-45.640404-8.016162-68.395959-12.282829-10.343434-1.939394-15.773737-8.791919-18.488889-18.618182-6.076768-21.850505-7.240404-44.088889-5.430303-66.585858 1.034343-13.317172 2.456566-26.634343 4.395959-39.822222 3.490909-23.789899 17.971717-39.951515 37.753536-52.105051 16.937374-10.60202 36.20202-14.99798 54.949495-20.816161 19.781818-6.206061 39.822222-11.765657 59.086868-19.39394 19.781818-7.757576 37.494949-19.393939 50.424243-36.977778 6.981818-9.438384 10.472727-19.911111 10.084848-31.547474-0.258586-8.40404-0.775758-16.678788-1.680808-25.082829-1.034343-10.084848-5.947475-18.230303-13.317172-24.953535-5.042424-4.525253-9.826263-9.309091-15.256565-13.317172-11.636364-8.40404-19.264646-19.781818-24.436364-32.840404-3.620202-9.309091-6.593939-18.747475-10.214141-28.056565-0.775758-1.939394-2.327273-4.137374-4.008081-4.783839-9.826263-4.008081-16.808081-11.119192-21.462626-20.040404-12.8-24.694949-14.222222-49.131313 4.00808-72.40404 1.163636-1.422222 1.422222-3.878788 1.551515-5.818182 1.680808-21.850505 2.19798-43.830303 5.171718-65.422222 3.490909-25.341414 9.179798-50.424242 21.591919-73.309091 24.953535-46.028283 63.353535-74.472727 114.682828-84.040404 55.337374-10.343434 107.959596-1.292929 156.961616 27.022222 28.056566 16.290909 47.191919 40.210101 59.086869 69.818182 12.024242 29.866667 18.618182 61.284848 20.428283 93.478788 0.646465 11.377778 1.034343 22.884848 1.680808 34.262626 0.129293 1.422222 0.517172 3.361616 1.422222 4.266667 10.084848 9.567677 13.575758 21.721212 13.187879 35.038383-0.517172 14.351515-2.327273 28.573737-10.989899 40.985859-4.913131 6.981818-11.248485 12.282828-19.006061 15.90303-1.939394 0.905051-3.878788 2.844444-4.525252 4.783839-3.232323 8.40404-5.818182 17.066667-9.050505 25.470707-0.646465 1.810101-2.585859 3.749495-4.39596 4.525252-38.012121 15.773737-71.111111 39.046465-99.426262 68.783839-40.210101 42.149495-66.19798 91.668687-75.765657 149.20404-10.860606 65.163636 0.258586 126.836364 31.806061 184.888889 0.775758 1.810101 1.810101 4.008081 3.232323 6.852525z" p-id="9119"></path><path d="M800.969697 629.656566h-27.410101v-63.741414c0-53.39798-43.313131-96.711111-96.711111-96.711112s-96.840404 43.442424-96.840404 96.711112V629.656566h-27.410101c-13.187879 0-23.919192 10.731313-23.919192 23.919192v174.416161c0 13.187879 10.731313 23.919192 23.919192 23.919192h248.371717c13.187879 0 23.919192-10.731313 23.919192-23.919192v-174.545454c0-13.187879-10.731313-23.789899-23.919192-23.789899z m-110.674748 115.587878v38.141415c0 1.680808-1.422222 3.10303-3.10303 3.10303h-20.557576c-1.810101 0-3.10303-1.422222-3.10303-3.10303v-38.141415c-9.69697-4.913131-16.290909-14.868687-16.290909-26.375757 0-16.420202 13.317172-29.737374 29.737374-29.737374s29.737374 13.317172 29.737374 29.737374c-0.129293 11.507071-6.723232 21.462626-16.420203 26.375757z m46.157576-115.587878h-119.208081v-62.189899c0-32.840404 26.763636-59.60404 59.604041-59.604041 32.840404 0 59.60404 26.763636 59.60404 59.604041V629.656566z m0 0" p-id="9120"></path></svg>