<?xml version="1.0" standalone="no"?><!DOCTYPE svg PUBLIC "-//W3C//DTD SVG 1.1//EN" "http://www.w3.org/Graphics/SVG/1.1/DTD/svg11.dtd"><svg t="1577353838088" class="icon" viewBox="0 0 1024 1024" version="1.1" xmlns="http://www.w3.org/2000/svg" p-id="4219" xmlns:xlink="http://www.w3.org/1999/xlink" width="24" height="24"><defs><style type="text/css"></style></defs><path d="M995.55555555 706.44622222h-82.944V506.99377778v-0.22755556c0-11.264-8.98844445-20.36622222-20.25244444-20.48h-0.56888889l-353.84888889-0.56888889v-88.86044444h181.81688889c18.65955555-0.22755555 33.792-15.47377778 33.792-34.24711111v-248.03555556-0.34133333c0-18.77333333-15.01866667-33.90577778-33.67822222-34.24711111h-414.15111111c-18.65955555 0.22755555-33.792 15.47377778-33.792 34.24711111V362.72355555c0 18.77333333 15.01866667 33.90577778 33.67822222 34.24711112h181.81688889v88.74666666l-353.73511111-0.45511111c-11.264 0.11377778-20.25244445 9.216-20.25244444 20.48V516.89244445c0 0.68266667 0 1.25155555 0.11377777 1.93422222v187.73333333H30.72c-18.65955555 0.22755555-33.792 15.47377778-33.792 34.24711111v143.92888889c0 18.77333333 15.01866667 33.90577778 33.67822222 34.24711111H246.89777778c18.65955555-0.22755555 33.792-15.47377778 33.792-34.24711111V741.03466667v-0.34133334c0-18.77333333-15.01866667-33.90577778-33.67822223-34.24711111h-82.944v-169.52888889l323.47022223 0.45511112v169.07377777h-82.944c-18.65955555 0.22755555-33.792 15.47377778-33.792 34.24711111v144.04266667c0 18.77333333 15.01866667 33.90577778 33.67822222 34.24711111h216.29155555c18.65955555-0.22755555 33.792-15.47377778 33.792-34.24711111V741.03466667v-0.34133334c0-18.77333333-15.01866667-33.90577778-33.67822222-34.24711111h-82.944V537.37244445l324.26666667 0.4551111v168.61866667h-82.944c-18.65955555 0.22755555-33.792 15.47377778-33.792 34.24711111v144.04266667c0 18.77333333 15.01866667 33.90577778 33.67822222 34.24711111H995.55555555c18.65955555-0.22755555 33.792-15.47377778 33.792-34.24711111V741.03466667v-0.34133334c0-18.77333333-15.01866667-34.01955555-33.792-34.24711111z" p-id="4220"></path></svg>