<?xml version="1.0" standalone="no"?><!DOCTYPE svg PUBLIC "-//W3C//DTD SVG 1.1//EN" "http://www.w3.org/Graphics/SVG/1.1/DTD/svg11.dtd"><svg t="1576562761230" class="icon" viewBox="0 0 1024 1024" version="1.1" xmlns="http://www.w3.org/2000/svg" p-id="6856" xmlns:xlink="http://www.w3.org/1999/xlink" width="200" height="200"><defs><style type="text/css"></style></defs><path d="M576.988 62.615v7.471c0 87.718 0 175.436 0.059 263.124 0 30.001 20.333 50.216 50.393 50.216 87.718 0.029 175.435 0.029 263.152 0.029h7.267v528.797c0 26.426-19.22 46.818-45.588 48.459-2.051 0.117-4.043 0.117-6.035 0.117H179.095c-22.647 0-39.874-10.371-47.345-29.533-2.314-5.918-3.721-12.598-3.721-18.926-0.176-267.021-0.146-534.012-0.117-801.003 0-28.038 20.801-48.751 48.81-48.751 131.489-0.029 262.978 0 394.466 0h5.8zM513.383 447.5c-58.156 0-116.283 0-174.41 0.029-12.891 0-18.633 5.86-18.633 18.722v25.577c0.029 14.649 5.273 19.923 19.893 19.923h193.454c50.802 0 101.546 0.059 152.349 0 13.887 0 19.336-5.449 19.336-19.454 0.059-7.207 0-14.385 0-21.563 0-1.494 0.059-3.018 0.059-4.512 0-12.891-5.684-18.692-18.633-18.692-57.835-0.03-115.61-0.03-173.415-0.03z m-0.528 128.354H367.01c-10.196 0-20.392-0.176-30.587 0.059-9.551 0.234-15.85 6.328-16.026 15.646-0.205 10.84-0.176 21.738 0.029 32.578 0.176 8.262 4.834 13.945 12.305 15.469 2.432 0.527 4.98 0.469 7.471 0.469 74.036 0.059 148.042 0.059 222.077 0.059h123.813c13.828 0 19.277-5.566 19.277-19.57v-22.559c0-1.289 0.059-2.637 0.059-3.984-0.059-12.248-5.859-18.166-18.164-18.166l-174.409-0.001z m0.088 128.324H340.584c-1.846 0-3.691 0-5.508 0.117-8.409 0.703-14.385 6.506-14.62 14.943-0.293 11.191-0.264 22.383-0.029 33.574 0.205 8.379 5.039 13.652 13.272 15.117 2.432 0.41 4.98 0.527 7.471 0.527h342.755c1.642 0 3.341 0.059 4.981-0.059 10.781-0.703 16.406-6.621 16.465-17.402 0.059-9.023 0-18.047 0-27.07 0.059-14.357-5.273-19.748-19.512-19.748l-172.916 0.001z m0 0" p-id="6857"></path><path d="M641.619 82.186c6.621 5.508 12.599 9.786 17.755 14.942 68.029 67.854 136 135.766 203.854 203.796 5.216 5.244 9.552 11.367 15.06 17.989H641.619V82.186z m0 0" p-id="6858"></path></svg>