<?xml version="1.0" standalone="no"?><!DOCTYPE svg PUBLIC "-//W3C//DTD SVG 1.1//EN" "http://www.w3.org/Graphics/SVG/1.1/DTD/svg11.dtd"><svg t="1573701779455" class="icon" viewBox="0 0 1024 1024" version="1.1" xmlns="http://www.w3.org/2000/svg" p-id="2254" xmlns:xlink="http://www.w3.org/1999/xlink" width="200" height="200"><defs><style type="text/css"></style></defs><path d="M983.8 312.8c-25.8-60.9-62.6-115.6-109.6-162.6-47-47-101.7-83.8-162.6-109.6C648.5 14 581.5 0.4 512.5 0.4s-136 13.5-199.1 40.2c-11.5 4.9-22.9 10.2-33.9 15.8-47.4 24.3-90.6 55.7-128.6 93.8-47 47-83.8 101.7-109.6 162.6C14.5 375.9 1 442.9 1 511.9 1 581 14.5 648 41.2 711c25.8 60.9 62.6 115.6 109.6 162.6 47 47 101.7 83.8 162.6 109.6 63.1 26.7 130.1 40.2 199.1 40.2s136-13.5 199.1-40.2c60.9-25.8 115.6-62.6 162.6-109.6 47-47 83.8-101.7 109.6-162.6 26.7-63 40.2-130 40.2-199.1 0-69-13.5-136-40.2-199.1zM711.6 953.2c-63.1 26.7-130.1 40.2-199.1 40.2s-136-13.5-199.1-40.2C258.7 930.1 209 898 165.5 857.7c25.8-61.2 134.6-119.9 229.1-154.1 7.8-2.9 45.1-23.2 24.2-77.9-53.6-54.6-94-143.2-94-230.3C324.8 262 413.1 192 516.3 192c103.1 0 191.9 70 191.9 203.4 0 86.8-40.7 175-93.8 229.7h0.2c-20.4 62 12.2 76.7 17.4 78.5 96.8 32.1 203.8 88.3 233 149.1-44.9 42.6-96.4 76.4-153.4 100.5z" p-id="2255"></path></svg>