<?xml version="1.0" standalone="no"?><!DOCTYPE svg PUBLIC "-//W3C//DTD SVG 1.1//EN" "http://www.w3.org/Graphics/SVG/1.1/DTD/svg11.dtd"><svg t="1573699924994" class="icon" viewBox="0 0 1024 1024" version="1.1" xmlns="http://www.w3.org/2000/svg" p-id="4134" xmlns:xlink="http://www.w3.org/1999/xlink" width="200" height="200"><defs><style type="text/css"></style></defs><path d="M853.353412 0H170.646588C73.968941 0 0 73.968941 0 170.646588v682.706824C0 950.031059 73.968941 1024 170.646588 1024h682.706824C950.031059 1024 1024 950.031059 1024 853.353412V170.646588C1024 73.968941 950.031059 0 853.353412 0zM284.431059 85.353412h483.568941v329.908706H284.431059V85.353412z m654.215529 768c0 45.477647-39.755294 85.293176-85.293176 85.293176H170.646588c-45.477647 0-85.293176-39.755294-85.293176-85.293176V170.646588c0-45.477647 39.755294-85.293176 85.293176-85.293176h28.491294v409.6h654.155294v-409.6c45.537882 0 85.353412 39.755294 85.353412 85.293176v682.706824z" p-id="4135"></path><path d="M625.784471 142.215529h85.353411V369.844706h-85.353411z" p-id="4136"></path></svg>