<?xml version="1.0" standalone="no"?><!DOCTYPE svg PUBLIC "-//W3C//DTD SVG 1.1//EN" "http://www.w3.org/Graphics/SVG/1.1/DTD/svg11.dtd"><svg t="1577353256991" class="icon" viewBox="0 0 1126 1024" version="1.1" xmlns="http://www.w3.org/2000/svg" p-id="4103" xmlns:xlink="http://www.w3.org/1999/xlink" width="26.390625" height="24"><defs><style type="text/css"></style></defs><path d="M35.145704 296.018397l503.499292 201.921531a51.158229 51.158229 0 0 0 37.754774 0.102317l513.577464-201.870373a51.158229 51.158229 0 0 0-0.358108-95.35894L575.990504 3.495642a51.158229 51.158229 0 0 0-36.9874 0.153474L35.554969 200.86409a51.158229 51.158229 0 0 0-0.409265 95.154307z" p-id="4104"></path><path d="M0 742.373948v-22.509621a36.475817 36.475817 0 0 1 51.158229-33.355166l488.509932 214.65993a51.158229 51.158229 0 0 0 40.824267 0.153475L1074.322815 688.55549a36.68045 36.68045 0 0 1 51.15823 33.662115v22.049197a51.158229 51.158229 0 0 1-30.899571 46.963255l-514.498312 221.668607a51.158229 51.158229 0 0 1-40.824267-0.153474L30.592621 789.183727A51.158229 51.158229 0 0 1 0 742.425106z" p-id="4105"></path><path d="M0 486.582801v-22.509621a36.475817 36.475817 0 0 1 51.158229-33.355165l488.509932 214.65993a51.158229 51.158229 0 0 0 40.824267 0.153475L1074.322815 432.764344a36.68045 36.68045 0 0 1 51.15823 33.662115v22.049197a51.158229 51.158229 0 0 1-30.899571 46.963254l-514.498312 221.668608a51.158229 51.158229 0 0 1-40.824267-0.153475L30.592621 533.392581A51.158229 51.158229 0 0 1 0 486.633959z" p-id="4106"></path></svg>