<?xml version="1.0" standalone="no"?><!DOCTYPE svg PUBLIC "-//W3C//DTD SVG 1.1//EN" "http://www.w3.org/Graphics/SVG/1.1/DTD/svg11.dtd"><svg t="1577354051317" class="icon" viewBox="0 0 1024 1024" version="1.1" xmlns="http://www.w3.org/2000/svg" p-id="4480" xmlns:xlink="http://www.w3.org/1999/xlink" width="24" height="24"><defs><style type="text/css"></style></defs><path d="M990.263608 399.214078c-66.043129 231.086957-230.511 290.666563-410.017761 290.666563H511.962883A29994.587899 29994.587899 0 0 0 511.962883 600.351244c2.367825-84.345779-23.742249-87.097577-68.218969-48.956389 0 0-281.835215 180.978653-307.177346 207.792675-25.342131 26.878018 0 34.685442 0 34.685442l307.177346 207.72868c44.412725 38.269178 68.218969 28.797876 68.218969-38.525159 0-76.410365-0.767943-64.251261 0-65.339181 259.436867 0 506.71463-188.530096 511.962243-517.913804 0.127991-22.718325-23.486268-12.415084-33.661518 19.39057zM511.962883 344.81809v75.450435c-2.367825 86.201643 23.742249 88.95344 68.218969 50.748258l307.177345-208.176647s20.222509-9.279316 0-34.685442L580.181852 20.042042C535.769127-18.227136 511.962883-0.884415 511.962883 66.566611c0 16.830759 0.767943 57.467762 0 69.242893-259.436867 0-506.71463 177.138936-511.962243 507.098602-0.127991 22.718325 23.486268 12.415084 33.725513-19.518561C99.705287 391.982611 264.173157 343.73017 443.743914 343.73017L511.962883 344.81809z" p-id="4481"></path></svg>