<?xml version="1.0" standalone="no"?><!DOCTYPE svg PUBLIC "-//W3C//DTD SVG 1.1//EN" "http://www.w3.org/Graphics/SVG/1.1/DTD/svg11.dtd"><svg t="1574233469479" class="icon" viewBox="0 0 1024 1024" version="1.1" xmlns="http://www.w3.org/2000/svg" p-id="2267" xmlns:xlink="http://www.w3.org/1999/xlink" width="200" height="200"><defs><style type="text/css"></style></defs><path d="M286.726144 942.075904c-112.929792 0-204.8-91.874304-204.8-204.783616 0-112.946176 91.870208-204.8 204.8-204.8 112.925696 0 204.8 91.853824 204.8 204.8 0 112.909312-91.874304 204.783616-204.8 204.783616zM601.595904 440.30976c-98.817024 0-179.193856-80.377856-179.193856-179.192832 0-98.816 80.375808-179.192832 179.193856-179.192832 98.817024 0 179.209216 80.376832 179.209216 179.192832 0 98.814976-80.375808 179.192832-179.209216 179.192832zM814.08512 834.753536c-70.586368 0-128.011264-57.408512-128.011264-127.98976 0-70.586368 57.424896-127.991808 128.011264-127.991808 70.56384 0 127.988736 57.406464 127.988736 127.991808 0 70.582272-57.424896 127.98976-127.988736 127.98976z" p-id="2268"></path><path d="M255.683584 717.53728L544.794624 277.6064l68.461568 44.990464-289.11104 439.93088z" p-id="2269"></path><path d="M794.968064 754.208768L571.2384 277.690368l74.153984-34.816 223.729664 476.5184z" p-id="2270"></path></svg>