<?xml version="1.0" standalone="no"?><!DOCTYPE svg PUBLIC "-//W3C//DTD SVG 1.1//EN" "http://www.w3.org/Graphics/SVG/1.1/DTD/svg11.dtd"><svg t="1574233781095" class="icon" viewBox="0 0 1024 1024" version="1.1" xmlns="http://www.w3.org/2000/svg" p-id="2771" xmlns:xlink="http://www.w3.org/1999/xlink" width="200" height="200"><defs><style type="text/css"></style></defs><path d="M459.599 395.507c0 40.349-33.013 73.362-73.362 73.362H218.548c-40.349 0-73.362-33.013-73.362-73.362V227.818c0-40.349 33.013-73.362 73.362-73.362h167.684c40.349 0 73.362 33.013 73.362 73.362v167.689z m419.211 419.21c0 40.349-33.013 73.362-73.362 73.362H637.764c-40.349 0-73.362-33.013-73.362-73.362V647.033c0-40.349 33.013-73.362 73.362-73.362h167.684c40.349 0 73.362 33.013 73.362 73.362v167.684z m0-419.21c0 40.349-33.013 73.362-73.362 73.362H637.764c-40.349 0-73.362-33.013-73.362-73.362V227.818c0-40.349 33.013-73.362 73.362-73.362h167.684c40.349 0 73.362 33.013 73.362 73.362v167.689z m-419.211 419.21c0 40.349-33.013 73.362-73.362 73.362H218.548c-40.349 0-73.362-33.013-73.362-73.362V647.033c0-40.349 33.013-73.362 73.362-73.362h167.684c40.349 0 73.362 33.013 73.362 73.362v167.684z" p-id="2772"></path></svg>