<?xml version="1.0" standalone="no"?><!DOCTYPE svg PUBLIC "-//W3C//DTD SVG 1.1//EN" "http://www.w3.org/Graphics/SVG/1.1/DTD/svg11.dtd"><svg t="1574233580559" class="icon" viewBox="0 0 1024 1024" version="1.1" xmlns="http://www.w3.org/2000/svg" p-id="2517" xmlns:xlink="http://www.w3.org/1999/xlink" width="200" height="200"><defs><style type="text/css"></style></defs><path d="M456.17152 9.91232a166.87104 166.87104 0 0 1 111.65696 0l316.04736 112.18944a83.47648 83.47648 0 0 1 55.58272 78.6432v380.84608C939.45856 842.9568 512 991.232 512 991.232S84.54144 843.03872 84.54144 581.67296v-380.928c0-35.30752 22.20032-66.84672 55.5008-78.6432L456.17152 9.8304v0.08192z m265.8304 289.42336l-267.6736 277.87264-147.6608-157.40928a41.69728 41.69728 0 1 0-60.8256 56.97536l177.68448 189.48096a41.69728 41.69728 0 0 0 60.45696 0.4096l298.14784-309.41184a41.69728 41.69728 0 0 0-60.17024-57.83552v-0.08192z" p-id="2518"></path></svg>