<?xml version="1.0" standalone="no"?><!DOCTYPE svg PUBLIC "-//W3C//DTD SVG 1.1//EN" "http://www.w3.org/Graphics/SVG/1.1/DTD/svg11.dtd"><svg t="1577353702053" class="icon" viewBox="0 0 1024 1024" version="1.1" xmlns="http://www.w3.org/2000/svg" p-id="1306" xmlns:xlink="http://www.w3.org/1999/xlink" width="24" height="24"><defs><style type="text/css"></style></defs><path d="M838.14400033 21.33333333H173.56800033C108.50986633 21.33333333 55.46666633 74.37653333 55.46666633 139.63946633v752.4352c0 65.194667 53.0432 118.1696 118.101334 118.1696h664.576c65.262933 0 118.237867-52.974933 118.237866-118.1696V139.63946633C956.38186633 74.37653333 903.40693333 21.33333333 838.14400033 21.33333333zM531.28533333 759.29600033H254.19093333a28.740267 28.740267 0 0 1 0-57.412267h277.026133a28.740267 28.740267 0 0 1 0 57.412267z m226.372267-214.8352H254.12266633a28.672 28.672 0 0 1 0-57.412267h503.3984a28.740267 28.740267 0 0 1 0 57.412267z m0-214.698667H254.12266633a28.740267 28.740267 0 0 1 0-57.480533h503.3984a28.672 28.672 0 0 1 0 57.480533z" p-id="1307"></path></svg>