<?xml version="1.0" standalone="no"?><!DOCTYPE svg PUBLIC "-//W3C//DTD SVG 1.1//EN" "http://www.w3.org/Graphics/SVG/1.1/DTD/svg11.dtd"><svg t="1577353484899" class="icon" viewBox="0 0 1024 1024" version="1.1" xmlns="http://www.w3.org/2000/svg" p-id="1306" xmlns:xlink="http://www.w3.org/1999/xlink" width="24" height="24"><defs><style type="text/css"></style></defs><path d="M72.53333333 153.6h870.4a51.2 51.2 0 0 1 51.2 51.2v102.4a51.2 51.2 0 0 1-51.2 51.2H72.53333333a51.2 51.2 0 0 1-51.2-51.2V204.8a51.2 51.2 0 0 1 51.2-51.2z m691.2 51.2a25.6 25.6 0 0 0-25.6 25.6v51.2a25.6 25.6 0 0 0 25.6 25.6h102.4a25.6 25.6 0 0 0 25.6-25.6v-51.2a25.6 25.6 0 0 0-25.6-25.6h-102.4zM72.53333333 409.6h870.4a51.2 51.2 0 0 1 51.2 51.2v102.4a51.2 51.2 0 0 1-51.2 51.2H72.53333333a51.2 51.2 0 0 1-51.2-51.2V460.8a51.2 51.2 0 0 1 51.2-51.2z m691.2 51.2a25.6 25.6 0 0 0-25.6 25.6v51.2a25.6 25.6 0 0 0 25.6 25.6h102.4a25.6 25.6 0 0 0 25.6-25.6v-51.2a25.6 25.6 0 0 0-25.6-25.6h-102.4zM72.53333333 665.6h870.4a51.2 51.2 0 0 1 51.2 51.2v102.4a51.2 51.2 0 0 1-51.2 51.2H72.53333333a51.2 51.2 0 0 1-51.2-51.2v-102.4a51.2 51.2 0 0 1 51.2-51.2z m691.2 51.2a25.6 25.6 0 0 0-25.6 25.6v51.2a25.6 25.6 0 0 0 25.6 25.6h102.4a25.6 25.6 0 0 0 25.6-25.6v-51.2a25.6 25.6 0 0 0-25.6-25.6h-102.4z" p-id="1307"></path></svg>