<?xml version="1.0" standalone="no"?><!DOCTYPE svg PUBLIC "-//W3C//DTD SVG 1.1//EN" "http://www.w3.org/Graphics/SVG/1.1/DTD/svg11.dtd"><svg t="1577350680591" class="icon" viewBox="0 0 1024 1024" version="1.1" xmlns="http://www.w3.org/2000/svg" p-id="3903" xmlns:xlink="http://www.w3.org/1999/xlink" width="24" height="24"><defs><style type="text/css"></style></defs><path d="M454.55168 985.6V768c0-19.2 6.4-38.4 19.2-44.8 12.8-12.8 32-19.2 51.2-19.2v-19.2c-6.4-64 12.8-121.6 51.2-166.4 25.6-25.6 64-38.4 96-44.8 6.4-19.2 12.8-38.4 32-51.2 38.4-19.2 57.6-57.6 51.2-102.4 0-51.2-44.8-51.2-44.8-51.2l-12.8-89.6C672.15168 76.8 582.55168 6.4 473.75168 0h-32C339.35168 6.4 243.35168 76.8 224.15168 185.6c-19.2 89.6-19.2 83.2-19.2 83.2s-44.8 0-44.8 51.2c0 44.8 19.2 83.2 57.6 108.8 38.4 25.6 25.6 89.6 83.2 140.8 32 32 51.2 51.2 51.2 89.6 0 38.4-19.2 51.2-44.8 64-83.2 25.6-166.4 64-243.2 102.4-70.4 44.8-64 70.4-64 115.2C0.15168 1011.2 89.75168 1024 89.75168 1024h377.6c-6.4-12.8-12.8-25.6-12.8-38.4z m0 0" p-id="3904"></path><path d="M889.75168 723.2h-32v-51.2c0-51.2-12.8-96-44.8-134.4-25.6-25.6-64-38.4-102.4-38.4h-12.8c-32 0-64 12.8-89.6 38.4-32 38.4-44.8 89.6-44.8 140.8v51.2h-25.6c-12.8 0-19.2 6.4-25.6 12.8-6.4 6.4-12.8 19.2-12.8 25.6v217.6c0 12.8 6.4 19.2 12.8 25.6 0 6.4 12.8 12.8 25.6 12.8H896.15168c12.8 0 19.2-6.4 25.6-12.8 6.4-6.4 12.8-19.2 12.8-25.6V768c0-12.8-6.4-19.2-12.8-25.6-6.4-12.8-19.2-19.2-32-19.2z m-96-44.8v51.2H640.15168v-51.2c0-64 25.6-102.4 76.8-102.4 19.2 0 38.4 6.4 51.2 19.2 12.8 25.6 19.2 51.2 25.6 83.2z m0 0" p-id="3905"></path></svg>